/* XPM */
static char *result[] = {
/* columns rows colors chars-per-pixel */
"64 64 7 1 ",
"  c black",
". c #736D6B",
"X c white",
"o c #C6C7C6",
"O c #FFBE8C",
"+ c #BD8A5A",
"@ c #9C6131",
/* pixels */
"    ..                                            ..  ..  ..    ",
"                                                                ",
"      XX                                         o o.....o o    ",
"                                                o o o o o o     ",
". o     OOOOOOOO    ++++++++@@@@@@@@@@@@++++++++     o o o     .",
".  o    OOOOOOOO    ++++++++@@@@@@@@@@@@++++++++    o o o o    .",
"  o     OOOOOOOO    ++++++++@@@@@@@@@@@@++++++++     o o o   X  ",
"  .o    OOOOOOOO    ++++++++@@@@@@@@@@@@++++++++    o o o o  X  ",
". .     OOOO    ++++++++++++@@@@@@@@@@@@++++++++++++     o   X .",
". .o    OOOO    ++++++++++++@@@@@@@@@@@@++++++++++++    o o  X .",
"  .     OOOO    ++++++++++++@@@@@@@@@@@@++++++++++++     o   X  ",
"  .o    OOOO    ++++++++++++@@@@@@@@@@@@++++++++++++    o o     ",
". o         @@@@@@@@++++@@@@@@@@@@@@@@@@@@@@++++@@@@     o     .",
".  o        @@@@@@@@++++@@@@@@@@@@@@@@@@@@@@++++@@@@    o o    .",
"  o         @@@@@@@@++++@@@@@@@@@@@@@@@@@@@@++++@@@@     o o    ",
"   o        @@@@@@@@++++@@@@@@@@@@@@@@@@@@@@++++@@@@    . o     ",
"        ++++    @@@@++++++++@@@@@@@@@@@@@@@@++++@@@@            ",
"        ++++    @@@@++++++++@@@@@@@@@@@@@@@@++++@@@@            ",
"  o     ++++    @@@@++++++++@@@@@@@@@@@@@@@@++++@@@@    ..o o   ",
"   o    ++++    @@@@++++++++@@@@@@@@@@@@@@@@++++@@@@     o o o  ",
". o     OOOO    @@@@++++++++@@@@++++++++@@@@++++@@@@++++    o  .",
".  o    OOOO    @@@@++++++++@@@@++++++++@@@@++++@@@@++++     o .",
"  .     OOOO    @@@@++++++++@@@@++++++++@@@@++++@@@@++++    o.  ",
"  .o    OOOO    @@@@++++++++@@@@++++++++@@@@++++@@@@++++     .  ",
". . o o         @@@@@@@@++++++++++++++++++++++++@@@@OOOO    o. .",
". .o o o        @@@@@@@@++++++++++++++++++++++++@@@@OOOO     . .",
"  . o o         @@@@@@@@++++++++++++++++++++++++@@@@OOOO    o.  ",
"   o o o        @@@@@@@@++++++++++++++++++++++++@@@@OOOO     o  ",
". o o o o o         @@@@@@@@@@@@@@@@@@@@@@@@@@@@@@@@    o o o  .",
".  o                @@@@@@@@@@@@@@@@@@@@@@@@@@@@@@@@         o .",
"                    @@@@@@@@@@@@@@@@@@@@@@@@@@@@@@@@            ",
"       XXXXX        @@@@@@@@@@@@@@@@@@@@@@@@@@@@@@@@    XX      ",
"    ..      oooooooooooooooooooooooo                ..  ..  ..  ",
"            oooooooooooooooooooooooo                            ",
"      XX    oooooooooooooooooooooooo                 o.....o o  ",
"            oooooooooooooooooooooooo                o o o o o   ",
". o         oooo    oooooooooooooooo    oooooooo     o o o o    ",
".  o o o    oooo    oooooooooooooooo    oooooooo    o o o o o   ",
"  o o o     oooo    oooooooooooooooo    oooooooo     o o o o   X",
"  .o o o    oooo    oooooooooooooooo    oooooooo    o o o o o  X",
". . o o     oooooooo    oooooooooooo    ooooOOOOOOOO     o o   X",
". .o o o    oooooooo    oooooooooooo    ooooOOOOOOOO    o o o  X",
"  . o o     oooooooo    oooooooooooo    ooooOOOOOOOO     o o   X",
"  .o o o    oooooooo    oooooooooooo    ooooOOOOOOOO    o o o   ",
". o o o         oooooooo        oooooooo    OOOOOOOO     o o    ",
".  o o o        oooooooo        oooooooo    OOOOOOOO    o o o   ",
"  o o o         oooooooo        oooooooo    OOOOOOOO     o o o  ",
"   o o..        oooooooo        oooooooo    OOOOOOOO    ... o   ",
"                    oooooooooooo                                ",
"                    oooooooooooo                                ",
"  o o o.....        oooooooooooo                     o ..... o o",
"   o o o o o        oooooooooooo                    o o o o o o ",
". o o o o o o o                 @@@@@@@@    o o      o o o o o o",
".  o o o o o o o                @@@@@@@@     o o      o o o o o ",
"  . o o o o o o.                @@@@@@@@    o o.     o o o o o o",
"  .o o o o o o .                @@@@@@@@     o .  X   o o o o o.",
". . o o o o o o.  X             @@@@@@@@          X  o o o o o .",
". .o o o o o o .  X             @@@@@@@@          X   o o o o o.",
"  . o o o o o o.  X             @@@@@@@@          X  o o o o o .",
"   o o o o o o o  X             @@@@@@@@          X   o o o o o.",
". o o o o o o o      o o o o                         o o o o o o",
".  o           o      o o o                           o o o o o ",
"                     o o o o                         o o o o o o",
"       XXXXX        o o.....                        o o.....o o "
};
