/* XPM */
static char *result[] = {
/* columns rows colors chars-per-pixel */
"64 64 7 1 ",
"  c black",
". c #736D6B",
"X c white",
"o c #C6C7C6",
"O c #BD8A5A",
"+ c #9C6131",
"@ c #FFBE8C",
/* pixels */
"    ..  ..  ..                                     .  ..  ..    ",
"                                                                ",
"      XXXXX                                        o.....o o    ",
"                                                    o o o o     ",
". o              OOOOOOOOOOOOOOOOO+++++++++++++++++    o o     .",
".  o o o o o     OOOOOOOOOOOOOOOOO+++++++++++++++++     o o    .",
"  o o o o o o    OOOOOOOOOOOOOOOOO+++++++++++++++++    o o   X  ",
"  .o o o o o     OOOOOOOOOOOOOOOOO+++++++++++++++++     o o  X  ",
". . o o o o o    OOOOOOOOOOOOOOOOO+++++++++++++++++    o o   X .",
". .o o o     OOOOOOOOOOOOOOOOO++++++++         ++++     o o  X .",
"  . o o o    OOOOOOOOOOOOOOOOO++++++++         ++++    o o   X  ",
"  .o o o     OOOOOOOOOOOOOOOOO++++++++         ++++     o o     ",
". o o o o    OOOOOOOOOOOOOOOOO++++++++         ++++    o o     .",
".  o o o     ++++OOOOOOOOOOOOO++++++++XXXXXXXXX@@@@@@@@        .",
"  o o o o    ++++OOOOOOOOOOOOO++++++++XXXXXXXXX@@@@@@@@         ",
"   o o...    ++++OOOOOOOOOOOOO++++++++XXXXXXXXX@@@@@@@@         ",
"             ++++OOOOOOOOOOOOO++++++++XXXXXXXXX@@@@@@@@         ",
"             ++++++++OOOOOOOOOOOOO@@@@XXXXX    OOOOOOOO         ",
"  o o o..    ++++++++OOOOOOOOOOOOO@@@@XXXXX    OOOOOOOO     o   ",
"   o o o     ++++++++OOOOOOOOOOOOO@@@@XXXXX    OOOOOOOO      o  ",
". o o o o    ++++++++OOOOOOOOOOOOO@@@@XXXXX    OOOOOOOO     o  .",
".  o o o     +++++++++++++OOOO    @@@@XXXXX    @@@@@@@@      o .",
"  . o o o    +++++++++++++OOOO    @@@@XXXXX    @@@@@@@@     o.  ",
"  .o o o     +++++++++++++OOOO    @@@@XXXXX    @@@@@@@@      .  ",
". . o o o    +++++++++++++OOOO    @@@@XXXXX    @@@@@@@@     o. .",
". .o o o     +++++++++++++OOOO    @@@@XXXXX    @@@@@@@@      . .",
"  . o o o    ++++++++     @@@@++++@@@@@@@@@@@@@@@@@@@@@     o.  ",
"   o o o     ++++++++     @@@@++++@@@@@@@@@@@@@@@@@@@@@      o  ",
". o o o o    ++++++++     @@@@++++@@@@@@@@@@@@@@@@@@@@@     o  .",
".  o         ++++++++     @@@@++++@@@@@@@@@@@@@@@@@@@@@      o .",
"                 ++++     OOOOOOOOOOOO+++++++++OOOOOOOO         ",
"       XXXXX     ++++     OOOOOOOOOOOO+++++++++OOOOOOOO         ",
"    ..  ..  .    ++++     OOOOOOOOOOOO+++++++++OOOOOOOO     ..  ",
"                 ++++     OOOOOOOOOOOO+++++++++OOOOOOOO         ",
"      XXXXX               OOOOOOOO+++++++++@@@@@@@@    ....o o  ",
"                          OOOOOOOO+++++++++@@@@@@@@     o o o   ",
". o           o           OOOOOOOO+++++++++@@@@@@@@    o o o    ",
".  o o o o o o o          OOOOOOOO+++++++++@@@@@@@@     o o o   ",
"  o o o o o o    oooo                                          X",
"  .o o o o o     oooo                                       o  X",
". . o o o o o    oooo                                          X",
". .o o o o o     oooo                                       o  X",
"  . o o o o o    oooo                                          X",
"  .o o o         oooo     oooo    ooooooooooooo    @@@@@@@@@    ",
". o o o o        oooo     oooo    ooooooooooooo    @@@@@@@@@    ",
".  o o o         oooo     oooo    ooooooooooooo    @@@@@@@@@    ",
"  o o o o        oooo     oooo    ooooooooooooo    @@@@@@@@@    ",
"   o     ++++    ooooooooo            ooooooooo    @@@@@@@@@    ",
"         ++++    ooooooooo            ooooooooo    @@@@@@@@@    ",
"         ++++    ooooooooo            ooooooooo    @@@@@@@@@    ",
"  o      ++++    ooooooooo            ooooooooo    @@@@@@@@@    ",
"   o     ++++        ooooooooooooo                          o o ",
". o      ++++        ooooooooooooo                           o o",
".  o     ++++        ooooooooooooo                          o o ",
"  .      ++++        ooooooooooooo                           o o",
"  .o     ++++++++                 +++++++++++++       o o o o o.",
". .      ++++++++                 +++++++++++++      o o o o o .",
". .o     ++++++++                 +++++++++++++       o o o o o.",
"  .      ++++++++                 +++++++++++++      o o o o o .",
"   o     ++++++++                 +++++++++++++       o o o o o.",
"                                                       o o o o o",
"                                                        o o o o ",
"                                                       o o o o o",
"                                                       .....o o "
};
