/* XPM */
static char *result[] = {
/* columns rows colors chars-per-pixel */
"64 64 7 1 ",
"  c black",
". c #736D6B",
"X c white",
"o c #C6C7C6",
"O c #9C6131",
"+ c #BD8A5A",
"@ c #FFBE8C",
/* pixels */
"    ..  ..  .                                     ..  ..  ..    ",
"                                                                ",
"      XXXXX                                      o o.....o o    ",
"                                                o o o o o o     ",
". o          OOOOOOOOOOOOOOOOO+++++++++++++++++    o o o o     .",
".  o o o     OOOOOOOOOOOOOOOOO+++++++++++++++++     o o o o    .",
"  o o o o    OOOOOOOOOOOOOOOOO+++++++++++++++++    o o o o   X  ",
"  .o o o     OOOOOOOOOOOOOOOOO+++++++++++++++++     o o o o  X  ",
". . o o o    OOOOOOOOOOOOOOOOO+++++++++++++++++    o o o o   X .",
". .o o o     OOOO         OOOOOOOO+++++++++++++++++     o o  X .",
"  . o o o    OOOO         OOOOOOOO+++++++++++++++++    o o   X  ",
"  .o o o     OOOO         OOOOOOOO+++++++++++++++++     o o     ",
". o o o o    OOOO         OOOOOOOO+++++++++++++++++    o o     .",
".  o     @@@@@@@@XXXXXXXXXOOOOOOOO+++++++++++++OOOO     o o    .",
"  o      @@@@@@@@XXXXXXXXXOOOOOOOO+++++++++++++OOOO    o o o    ",
"   o     @@@@@@@@XXXXXXXXXOOOOOOOO+++++++++++++OOOO    .. o     ",
"         @@@@@@@@XXXXXXXXXOOOOOOOO+++++++++++++OOOO             ",
"         ++++++++    XXXXX@@@@+++++++++++++OOOOOOOO             ",
"  o      ++++++++    XXXXX@@@@+++++++++++++OOOOOOOO    ...o o   ",
"   o     ++++++++    XXXXX@@@@+++++++++++++OOOOOOOO    o o o o  ",
". o      ++++++++    XXXXX@@@@+++++++++++++OOOOOOOO     o o o  .",
".  o     @@@@@@@@    XXXXX@@@@    ++++OOOOOOOOOOOOO    o o o o .",
"  .      @@@@@@@@    XXXXX@@@@    ++++OOOOOOOOOOOOO     o o o.  ",
"  .o     @@@@@@@@    XXXXX@@@@    ++++OOOOOOOOOOOOO    o o o .  ",
". .      @@@@@@@@    XXXXX@@@@    ++++OOOOOOOOOOOOO     o o o. .",
". .o     @@@@@@@@    XXXXX@@@@    ++++OOOOOOOOOOOOO    o o o . .",
"  .      @@@@@@@@@@@@@@@@@@@@@OOOO@@@@     OOOOOOOO     o o o.  ",
"   o     @@@@@@@@@@@@@@@@@@@@@OOOO@@@@     OOOOOOOO    o o o o  ",
". o      @@@@@@@@@@@@@@@@@@@@@OOOO@@@@     OOOOOOOO     o o o  .",
".  o     @@@@@@@@@@@@@@@@@@@@@OOOO@@@@     OOOOOOOO          o .",
"         ++++++++OOOOOOOOO++++++++++++     OOOO                 ",
"         ++++++++OOOOOOOOO++++++++++++     OOOO      XXXXX      ",
"         ++++++++OOOOOOOOO++++++++++++     OOOO     ..  ..  ..  ",
"         ++++++++OOOOOOOOO++++++++++++     OOOO                 ",
"      XXX    @@@@@@@@OOOOOOOOO++++++++             o o.....o o  ",
"             @@@@@@@@OOOOOOOOO++++++++            o o o o o o   ",
". o          @@@@@@@@OOOOOOOOO++++++++             o o o o o    ",
".  o o o     @@@@@@@@OOOOOOOOO++++++++         o  o o o o o o   ",
"  o                                        oooo    o o o o o   X",
"  .o                                       oooo     o o o o o  X",
". .                                        oooo    o o o o o   X",
". .o                                       oooo     o o o o o  X",
"  .                                        oooo    o o o o o   X",
"    @@@@@@@@@    ooooooooooooo    oooo     oooo         o o o   ",
"    @@@@@@@@@    ooooooooooooo    oooo     oooo        o o o    ",
"    @@@@@@@@@    ooooooooooooo    oooo     oooo         o o o   ",
"    @@@@@@@@@    ooooooooooooo    oooo     oooo        o o o o  ",
"    @@@@@@@@@    ooooooooo            ooooooooo    OOOO     o   ",
"    @@@@@@@@@    ooooooooo            ooooooooo    OOOO         ",
"    @@@@@@@@@    ooooooooo            ooooooooo    OOOO         ",
"    @@@@@@@@@    ooooooooo            ooooooooo    OOOO      o o",
"   o                          ooooooooooooo        OOOO     o o ",
". o                           ooooooooooooo        OOOO      o o",
".  o                          ooooooooooooo        OOOO     o o ",
"  .                           ooooooooooooo        OOOO      o o",
"  .o o o o o     OOOOOOOOOOOOO                 OOOOOOOO     o o.",
". . o o o o o    OOOOOOOOOOOOO                 OOOOOOOO      o .",
". .o o o o o     OOOOOOOOOOOOO                 OOOOOOOO     o o.",
"  . o o o o o    OOOOOOOOOOOOO                 OOOOOOOO      o .",
"   o o o o o     OOOOOOOOOOOOO                 OOOOOOOO     o o.",
". o o o o                                                       ",
".  o                                                            ",
"                                                                ",
"       XX                                                       "
};
