/* XPM */
static char *result[] = {
/* columns rows colors chars-per-pixel */
"64 64 8 1 ",
"  c black",
". c #736D6B",
"X c white",
"o c #C6C7C6",
"O c #9C6131",
"+ c #BD8A5A",
"@ c #FFBE8C",
"# c #848600",
/* pixels */
"    ..  ..  ..                                    ..  ..  ..    ",
"                                                                ",
"      XXXXX                                      o o.....o o    ",
"                                                o o o o o o     ",
". o             OOOOOOOOOOOO++++++++++++++++OOOO     o o o     .",
".  o o o o o    OOOOOOOOOOOO++++++++++++++++OOOO    o o o o    .",
"  o o o o o     OOOOOOOOOOOO++++++++++++++++OOOO     o o o   X  ",
"  .o o o o o    OOOOOOOOOOOO++++++++++++++++OOOO    o o o o  X  ",
". . o o o o     OOOOOOOO++++++++OOOOOOOO++++++++     o o o   X .",
". .o o o o o    OOOOOOOO++++++++OOOOOOOO++++++++    o o o o  X .",
"  . o o o o     OOOOOOOO++++++++OOOOOOOO++++++++     o o o   X  ",
"  .o o o o o    OOOOOOOO++++++++OOOOOOOO++++++++    o o o o     ",
". o o o     OOOOOOOOOOOO        @@@@@@@@        OOOO     o     .",
".  o o o    OOOOOOOOOOOO        @@@@@@@@        OOOO    o o    .",
"  o o o     OOOOOOOOOOOO        @@@@@@@@        OOOO     o o    ",
"   o o..    OOOOOOOOOOOO        @@@@@@@@        OOOO    . o     ",
"        ++++    OOOO++++XXXXXXXX@@@@@@@@XXXXXXXX++++++++        ",
"        ++++    OOOO++++XXXXXXXX@@@@@@@@XXXXXXXX++++++++        ",
"  o     ++++    OOOO++++XXXXXXXX@@@@@@@@XXXXXXXX++++++++    o   ",
"   o    ++++    OOOO++++XXXXXXXX@@@@@@@@XXXXXXXX++++++++     o  ",
". o     @@@@++++++++@@@@XXXX    ++++++++    XXXX++++@@@@    o  .",
".  o    @@@@++++++++@@@@XXXX    ++++++++    XXXX++++@@@@     o .",
"  .     @@@@++++++++@@@@XXXX    ++++++++    XXXX++++@@@@    o.  ",
"  .o    @@@@++++++++@@@@XXXX    ++++++++    XXXX++++@@@@     .  ",
". . o o         ++++@@@@XXXX    @@@@@@@@    XXXX++++    o o o. .",
". .o o o        ++++@@@@XXXX    @@@@@@@@    XXXX++++     o o . .",
"  . o o         ++++@@@@XXXX    @@@@@@@@    XXXX++++    o o o.  ",
"   o o o        ++++@@@@XXXX    @@@@@@@@    XXXX++++     o o o  ",
". o     @@@@@@@@    OOOOOOOOOOOO++++++++OOOOOOOOOOOO    o o o  .",
".  o    @@@@@@@@    OOOOOOOOOOOO++++++++OOOOOOOOOOOO         o .",
"        @@@@@@@@    OOOOOOOOOOOO++++++++OOOOOOOOOOOO            ",
"        @@@@@@@@    OOOOOOOOOOOO++++++++OOOOOOOOOOOO    XX      ",
"    ..      @@@@    OOOO++++@@@@        @@@@++++OOOO    ..  ..  ",
"            @@@@    OOOO++++@@@@        @@@@++++OOOO            ",
"      XX    @@@@    OOOO++++@@@@        @@@@++++OOOO    ...o o  ",
"            @@@@    OOOO++++@@@@        @@@@++++OOOO    o o o   ",
". o                     ++++++++++++++++++++++++     o o o o    ",
".  o o o o o            ++++++++++++++++++++++++    o o o o o   ",
"  o o o o o             ++++++++++++++++++++++++     o o o o   X",
"  .o o o o o            ++++++++++++++++++++++++    o o o o o  X",
". . o o o o o o.    oooo                        oooo     o o   X",
". .o o o o o o .    oooo                        oooo    o o o  X",
"  . o o o o o o.    oooo                        oooo     o o   X",
"  .o o o o o o .    oooo                        oooo    o o o   ",
". o o o o o             ####XXXX####oooo    oooooooo     o o    ",
".  o o o o o            ####XXXX####oooo    oooooooo    o o o   ",
"  o o o o o             ####XXXX####oooo    oooooooo     o o o  ",
"   o o.....o            ####XXXX####oooo    oooooooo    ... o   ",
"                OOOOOOOO    oooo                                ",
"                OOOOOOOO    oooo                                ",
"  o o o.....    OOOOOOOO    oooo                        .... o o",
"   o o o o o    OOOOOOOO    oooo                        o o o o ",
". o o o o o o o                 oooooooo    @@@@@@@@     o o o o",
".  o o o o o o o                oooooooo    @@@@@@@@    o o o o ",
"  . o o o o o o.                oooooooo    @@@@@@@@     o o o o",
"  .o o o o o o .                oooooooo    @@@@@@@@    o o o o.",
". . o o o o o o.  X  o o o o                @@@@@@@@         o .",
". .o o o o o o .  X   o o o                 @@@@@@@@        o o.",
"  . o o o o o o.  X  o o o o                @@@@@@@@         o .",
"   o o o o o o o  X   o o o                 @@@@@@@@        o o.",
". o o o o o o o      o o o o o o                         o o o o",
".  o           o      o o o o o                         o o o o ",
"                     o o o o o o                         o o o o",
"       XXXXX        o o.....o o                         ....o o "
};
