/* XPM */
static char *result[] = {
/* columns rows colors chars-per-pixel */
"64 64 6 1 ",
"  c black",
". c #736D6B",
"X c white",
"o c #C6C7C6",
"O c #008600",
"+ c #9C0000",
/* pixels */
"    ..  ..  ..                                    ..  ..  ..    ",
"                                                                ",
"      XXXXX        o                         o   o o.....o o    ",
"                  o                         o   o o o o o o     ",
". o           o     ooooOOOOOOOOOOOOOOOOXXXX     o o o o o     .",
".  o o o o o o o    ooooOOOOOOOOOOOOOOOOXXXX    o o o o o o    .",
"  o o o o o o o     ooooOOOOOOOOOOOOOOOOXXXX    .o o o o o   X  ",
"  .o o o o o o .    ooooOOOOOOOOOOOOOOOOXXXX    . o o o o o  X  ",
". . o o o o     ooooXXXXXXXXXXXXXXXXXXXXXXXXXXXX     o o o   X .",
". .o o o o o    ooooXXXXXXXXXXXXXXXXXXXXXXXXXXXX    o o o o  X .",
"  . o o o o     ooooXXXXXXXXXXXXXXXXXXXXXXXXXXXX     o o o   X  ",
"  .o o o o o    ooooXXXXXXXXXXXXXXXXXXXXXXXXXXXX    o o o o     ",
". o o o     OOOOOOOOXXXXXXXX++++++++++++++++XXXXXXXX     o     .",
".  o o o    OOOOOOOOXXXXXXXX++++++++++++++++XXXXXXXX    o o    .",
"  o o o     OOOOOOOOXXXXXXXX++++++++++++++++XXXXXXXX     o o    ",
"   o o..    OOOOOOOOXXXXXXXX++++++++++++++++XXXXXXXX    . o     ",
"            OOOOOOOOXXXXXXXX++++oooooooo++++OOOOXXXX            ",
"            OOOOOOOOXXXXXXXX++++oooooooo++++OOOOXXXX            ",
"  o o o.    OOOOOOOOXXXXXXXX++++oooooooo++++OOOOXXXX    ..o o   ",
"   o o o    OOOOOOOOXXXXXXXX++++oooooooo++++OOOOXXXX     o o o  ",
". o o o     ++++OOOOXXXXXXXX++++oooooooo++++XXXXXXXX    o o o  .",
".  o o o    ++++OOOOXXXXXXXX++++oooooooo++++XXXXXXXX     o o o .",
"  . o o     ++++OOOOXXXXXXXX++++oooooooo++++XXXXXXXX    o o o.  ",
"  .o o o    ++++OOOOXXXXXXXX++++oooooooo++++XXXXXXXX     o o .  ",
". .     oooo    ++++XXXXXXXX++++++++++++++++XXXX    oooo    o. .",
". .o    oooo    ++++XXXXXXXX++++++++++++++++XXXX    oooo     . .",
"  .     oooo    ++++XXXXXXXX++++++++++++++++XXXX    oooo    o.  ",
"   o    oooo    ++++XXXXXXXX++++++++++++++++XXXX    oooo     o  ",
"    oooo    oooo                                oooo    oooo    ",
"    oooo    oooo                                oooo    oooo    ",
"    oooo    oooo                                oooo    oooo    ",
"    oooo    oooo                                oooo    oooo    ",
"    oooo    ooooooooooooooooooooooooooooooooooooXXXX    oooo    ",
"    oooo    ooooooooooooooooooooooooooooooooooooXXXX    oooo    ",
"    oooo    ooooooooooooooooooooooooooooooooooooXXXX    oooo    ",
"    oooo    ooooooooooooooooooooooooooooooooooooXXXX    oooo    ",
"    XXXX    ooooooooXXXXOOOOOOOOOOOOOOOOXXXXooooXXXX    XXXX    ",
"    XXXX    ooooooooXXXXOOOOOOOOOOOOOOOOXXXXooooXXXX    XXXX    ",
"    XXXX    ooooooooXXXXOOOOOOOOOOOOOOOOXXXXooooXXXX    XXXX    ",
"    XXXX    ooooooooXXXXOOOOOOOOOOOOOOOOXXXXooooXXXX    XXXX    ",
"    XXXX    ooooooooXXXXXXXXXXXXXXXXXXXXXXXXooooXXXX    XXXX    ",
"    XXXX    ooooooooXXXXXXXXXXXXXXXXXXXXXXXXooooXXXX    XXXX    ",
"    XXXX    ooooooooXXXXXXXXXXXXXXXXXXXXXXXXooooXXXX    XXXX    ",
"    XXXX    ooooooooXXXXXXXXXXXXXXXXXXXXXXXXooooXXXX    XXXX    ",
"    XXXX    ooooooooXXXXOOOOOOOOOOOOOOOOXXXXooooXXXX    XXXX    ",
"    XXXX    ooooooooXXXXOOOOOOOOOOOOOOOOXXXXooooXXXX    XXXX    ",
"    XXXX    ooooooooXXXXOOOOOOOOOOOOOOOOXXXXooooXXXX    XXXX    ",
"    XXXX    ooooooooXXXXOOOOOOOOOOOOOOOOXXXXooooXXXX    XXXX    ",
"                XXXXXXXXXXXXooooooooXXXXXXXXXXXX                ",
"                XXXXXXXXXXXXooooooooXXXXXXXXXXXX                ",
"  o             XXXXXXXXXXXXooooooooXXXXXXXXXXXX             o o",
"   o            XXXXXXXXXXXXooooooooXXXXXXXXXXXX            o o ",
"    XXXX    o o                                         XXXX    ",
"    XXXX     o o                                        XXXX    ",
"    XXXX    o o.                                        XXXX    ",
"    XXXX     o .                                  X     XXXX    ",
"            o o.  X  o o    XXXXXXXX    o o o o.  X             ",
"             o .  X   o     XXXXXXXX     o o o .  X             ",
"            o o.  X  o o    XXXXXXXX    o o o o.  X             ",
"             o o  X   o     XXXXXXXX     o o o o  X             ",
". o o o o o o o      o o                o o o o      o o o o o o",
".  o           o      o                        o      o o o o o ",
"                     o o                             o o o o o o",
"       XXXXX        o o.                XXXX        o o.....o o "
};
