/* XPM */
static char *result[] = {
/* columns rows colors chars-per-pixel */
"64 64 19 1 ",
"  c black",
". c #736D6B",
"X c #01C700",
"o c white",
"O c #C6C7C6",
"+ c #2B2B33",
"@ c #0F0F13",
"# c #3B3B47",
"$ c #1B1B23",
"% c #4B4B57",
"& c #5B5B67",
"* c #6F6F7B",
"= c #7F7F8B",
"- c #A3A3AB",
"; c #8F8F9B",
": c #A70000",
"> c #530000",
", c #6F0000",
"< c #0F535B",
/* pixels */
"        ..  ..      XXXXXXXXXXXXXXXXXXXXXXXX      ..  ..        ",
"                    XXXXXXXXXXXXXXXXXXXXXXXX                    ",
"        ooo        OXXXXXXXXXXXXXXXXXXXXXXXX O   O O....        ",
"                  O XXXXXXXXXXXXXXXXXXXXXXXXO   O O O O         ",
"    oooo    XXXXXXXXXXXX++@@@@++#+++@@@+XXXXXXXXXXXX    oooo    ",
"    oooo    XXXXXXXXXXXX@@$+++##%##+++@@XXXXXXXXXXXX    oooo    ",
"    oooo    XXXXXXXXXXXX$$$++#%%&%%+++@@XXXXXXXXXXXX    oooo    ",
"    oooo    XXXXXXXXXXXX$$$++#%%&%%+++@@XXXXXXXXXXXX    oooo    ",
". .     oooo      .O ++$$$$++#%%&%%#+++@@@++ .      oooo     o .",
". .O    oooo      . O@@$$$$++###%%%#$$+@@@@@O.      oooo     o .",
"  .     oooo      .O @@$$$$++###%%%#$$+@@@@@ .      oooo     o  ",
"  .O    oooo      O O$$$$$$$$+++####++@@@@$$O.      oooo        ",
". O XXXX    XXXX     $$@@@+$$$$$$++@@@@@@@$$    XXXX    XXXX   .",
".  OXXXX    XXXX    O$$@@@+$$$$$$++@@@@@@@$$    XXXX    XXXX   .",
"  O XXXX    XXXX        @@@@@@@@@@@@@@@@@@@@    XXXX    XXXX    ",
"   OXXXX    XXXX    $@@$++%&&&%%+%%&&&%##$@@    XXXX    XXXX    ",
"    XXXX            $@@$++%&&&%%+%%&&&%##$@@            XXXX    ",
"    XXXX            @@@+%%###&&& &&&###%%#$$            XXXX    ",
"  O XXXX....        @@@%##   +## ##+   ##%$$        O...XXXXO   ",
"   OXXXX O O        @@@%##   +## ##+   ##%$$         O OXXXX O  ",
"XXXXXXXXO O O O  $@@@$$#      ++#++      #++$$$$O O O O XXXXXXXX",
"XXXXXXXX O O O O  $$$$$#      $$&$$      #+++$$  O O O OXXXXXXXX",
"XXXXXXXXO O O O.  $$$$$#      $$&$$      #+++$$ . O O O XXXXXXXX",
"XXXXXXXX O O O .    $++%  *###&&=&&#%%&  #++$   .O O O OXXXXXXXX",
"XXXXO O O O O O.     ##%++#===--;--=**%++%##    . O O O O O XXXX",
"XXXX O O O O O .     ##%++#===--;--=**%++%##    .O O O O O OXXXX",
"XXXXO O O O O O.  o  %%#+++$$%**&**&%%#++#%% @@ . O O O O O XXXX",
"XXXX O O O O O O        +++##*##$##*##+++        O O O O O OXXXX",
"XXXXO O O O O O         +++##*##$##*##+++       O O O O O O XXXX",
"XXXX                 $$ ###%%*  @  *%%### $$                XXXX",
"XXXX             @$$$$$   #==%$$@$$%==#   $$$$$@            XXXX",
"XXXX   ooooo     @$$$$$   #==%$$@$$%==#   $$$$$@     ooooo  XXXX",
"XXXX..  ..  .. @@@$$$   ## --$%%$%%$-- ##   $$$@@@  ..  ..  XXXX",
"XXXX           @@@$$$   ## --$%%$%%$-- ##   $$$@@@          XXXX",
"XXXX  ooooo   @@@ $$       &&       &&       $$ @@@  O.....OXXXX",
"XXXX          @@@$     ###             ###     $@@@   O O O XXXX",
"XXXX          @@@$     ###             ###     $@@@  O O O OXXXX",
"XXXX O O O  @@+$$@         %%&&&&&&&%%         @$$+@@ O O O XXXX",
"XXXXO O O O $$+@@@         %%=##=##:%%         @@@+$$  O O OXXXX",
"XXXX O O O  $$+@@@         %%=##=##:%%         @@@+$$ O O O XXXX",
"XXXXXXXXO O $$+  @         %%;##;##:%%         @  +$$  OXXXXXXXX",
"XXXXXXXX O  $$+  @  +$$    ##%%%%%%%##         @  +$$ O XXXXXXXX",
"XXXXXXXXO O $$+  @  +$$    ##%%%%%%%##         @  +$$  OXXXXXXXX",
"XXXXXXXX O  $$+  @  +$$    ##%%%%%%%##         @  +$$ O XXXXXXXX",
". O XXXXO O         >+++  @@@@@@@@@@@@@,,@%%        $  OXXXX    ",
".  OXXXX O          >+++  @@@@@@@@@@@@@,,@%%        $ O XXXXO   ",
"  O XXXXO O         @<<$@@+###;;;;;=##+++&$$        @  OXXXX O  ",
"   OXXXX...         @$$$@@+###;;---;##+++$%%        @ ..XXXXO   ",
"    XXXX    XXXX    @$$$@@+###;;---;##+++$%%    XXXX    XXXX    ",
"    XXXX    XXXX    @@@$@@+###;;;;;*##+$$$@@    XXXX    XXXX    ",
"  O XXXX    XXXX          @@@$$$+++$@@@         XXXX    XXXX O O",
"   OXXXX    XXXX          @@@$$$+++$@@@         XXXX    XXXXO O ",
". O     oooo    $@                             @    oooo     O O",
".  O    oooo    $@           @++$++$           @    oooo    O O ",
"  .     oooo    $@           @++$++$           @    oooo     O O",
"  .O    oooo    $@           @$$+$$+           @    oooo    O O.",
"    oooo    XXXXXXXXXXXX     @$$+$$+    XXXXXXXXXXXX    oooo    ",
"    oooo    XXXXXXXXXXXX     @$$+$$+    XXXXXXXXXXXX    oooo    ",
"    oooo    XXXXXXXXXXXX     @$$+$$$    XXXXXXXXXXXX    oooo    ",
"    oooo    XXXXXXXXXXXX$$    $$$$$@   $XXXXXXXXXXXX    oooo    ",
"        O@@@$$$@@   XXXXXXXXXXXXXXXXXXXXXXXX  O @@$$$@@@        ",
"            @@$@@   XXXXXXXXXXXXXXXXXXXXXXXX   O@@$@@ O         ",
"                    XXXXXXXXXXXXXXXXXXXXXXXX         O O        ",
"        oooo        XXXXXXXXXXXXXXXXXXXXXXXX          O.        "
};
