/* XPM */
static char *result[] = {
/* columns rows colors chars-per-pixel */
"64 64 18 1 ",
"  c black",
". c #736D6B",
"X c #0F0F13",
"o c #1B1B23",
"O c #2B2B33",
"+ c white",
"@ c #C6C7C6",
"# c #3B3B47",
"$ c #4B4B57",
"% c #5B5B67",
"& c #6F6F7B",
"* c #7F7F8B",
"= c #A3A3AB",
"- c #8F8F9B",
"; c #A70000",
": c #530000",
"> c #6F0000",
", c #0F535B",
/* pixels */
"    ..  ..  ..      ..  .. XXoXXXXXXOO..  ..      ..  ..  ..    ",
"                           XXoXXXXXXOO                          ",
"      +++++        @ @....OXXoOOOOOXXXO... @ @   @ @.....@ @    ",
"                  @ @ @ OOXXXXOO#OOOXXXOO @ @   @ @ @ @ @ @     ",
". @           @    @ @ @OOXXXXOO#OOOXXXOO@ @ @   @ @ @ @ @     .",
".  @ @ @ @ @ @ @  @ @ @OXXoOOO##$##OOOXXXO@ @   @ @ @ @ @ @    .",
"  @ @ @ @ @ @ @   .@ @ XoooOO#$$%$$OOOXXXo @ @  .@ @ @ @ @   +  ",
"  .@ @ @ @ @ @ .  . @ @XoooOO#$$%$$OOOXXXo@ @.  . @ @ @ @ @  +  ",
". . @ @ @ @ @ @.  .@ OOooooOO#$$%$$#OOOXXXOO .  .@ @ @ @ @   + .",
". .@ @ @ @ @ @ .  . @XXooooOO###$$$#ooOXXXXX@.  . @ @ @ @ @  + .",
"  . @ @ @ @ @ @.  .@ XXooooOO###$$$#ooOXXXXX .  .@ @ @ @ @   +  ",
"  .@ @ @ @ @ @ .  @ @ooooooooOOO####OOXXXXoo@.  @ @ @ @ @ @     ",
". @ @ @ @ @ @ @    @ ooXXXOooooooOOXXXXXXXoo @   @ @ @ @ @     .",
".  @ @ @ @ @ @ @  @ @ooXXXOooooooOOXXXXXXXoo@   @ @ @ @ @ @    .",
"  @ @ @ @ @ @ @    @    XXXXXXXXXXXXXXXXXXXX @   @ @ @ @ @ @    ",
"   @ @.....@ @ @    oXXoOO$%%%$$O$$%%%$##oXXo   @ @ ..... @     ",
"                    oXXoOO$%%%$$O$$%%%$##oXXo                   ",
"                    XXXO$$###%%% %%%###$$#ooo                   ",
"  @ @ @.....@ @   ooXXX$##   O## ##O   ##$ooooo @ @ @.....@ @   ",
"   @ @ @ @ @ @ @  ooXXX$##   O## ##O   ##$ooooo  @ @ @ @ @ @ @  ",
". @ @ @ @ @ @ @  oXXXoo#      OO#OO      #OOoooo@ @ @ @ @ @ @  .",
".  @ @ @ @ @ @ @  ooooo#      oo%oo      #OOOoo  @ @ @ @ @ @ @ .",
"  . @ @ @ @ @ @.  ooooo#      oo%oo      #OOOoo . @ @ @ @ @ @.  ",
"  .@ @ @ @ @ @ .    oOO$  &###%%*%%#$$%  #OOo   .@ @ @ @ @ @ .  ",
". . @ @ @ @ @ @.     ##$OO#***==-==*&&$OO$##    . @ @ @ @ @ @. .",
". .@ @ @ @ @ @ .     ##$OO#***==-==*&&$OO$##    .@ @ @ @ @ @ . .",
"  . @ @ @ @ @ @.  +  $$#OOOoo$&&%&&%$$#OO#$$ XX . @ @ @ @ @ @.  ",
"   @ @ @ @ @ @ @        OOO##&##o##&##OOO        @ @ @ @ @ @ @  ",
". @ @ @ @ @ @ @         OOO##&##o##&##OOO       @ @ @ @ @ @ @  .",
".  @                 oo ###$$&  X  &$$### oo                 @ .",
"                 Xooooo   #**$ooXoo$**#   oooooX                ",
"       +++++     Xooooo   #**$ooXoo$**#   oooooX     +++++      ",
"    ..  ..  .. XXXooo   ## ==o$$o$$o== ##   oooXXX  ..  ..  ..  ",
"               XXXooo   ## ==o$$o$$o== ##   oooXXX              ",
"      +++++   XXX oo       %%       %%       oo XXX  @.....@ @  ",
"              XXXo     ###             ###     oXXX   @ @ @ @   ",
". @           XXXo     ###             ###     oXXX  @ @ @ @    ",
".  @ @ @ @  XXOooX         $$%%%%%%%$$         XooOXX @ @ @ @   ",
"  @ @ @ @ @ ooOXXX         $$*##*##;$$         XXXOoo  @ @ @   +",
"  .@ @ @ @  ooOXXX         $$*##*##;$$         XXXOoo @ @ @ @  +",
". . @ @ @ @ ooO  X         $$-##-##;$$         X  Ooo  @ @ @   +",
". .@ @ @ @  ooO  X  Ooo    ##$$$$$$$##         X  Ooo @ @ @ @  +",
"  . @ @ @ @ ooO  X  Ooo    ##$$$$$$$##         X  Ooo  @ @ @   +",
"  .@ @ @ @  ooO  X  Ooo    ##$$$$$$$##         X  Ooo @ @ @ @   ",
". @ @ @ @ @ ooO  XXX:OOO  XXXXXXXXXXXXX>>X$$ OOX  Ooo  @ @ @    ",
".  @ @ @ @  ooO  XXX:OOO  XXXXXXXXXXXXX>>X$$ OOX  Ooo @ @ @ @   ",
"  @ @ @ @ @ XXoXXXXXX,,oXXO###-----*##OOO%ooXXXXXXoXX  @ @ @ @  ",
"   @ @..... XXoXXX  XoooXXO###--===-##OOOo$$X  XXXoXX ..... @   ",
"            XXoXXX  XoooXXO###--===-##OOOo$$X  XXXoXX           ",
"            XXoXXX  XXXoXXO###-----&##OoooXXX  XXXoXX           ",
"  @ @ @.... ooOooX        XXXoooOOOoXXX        XooOoo  ..... @ @",
"   @ @ @ @  ooOooX        XXXoooOOOoXXX        XooOoo @ @ @ @ @ ",
". @ @ @ @  XOOOooX                             XooOOOX   @ @ @ @",
".  @ @ @   XOOOooX           XOOoOOo           XooOOOX  @ @ @ @ ",
"  . @ @ @  XOOOooX           XOOoOOo           XooOOOX   @ @ @ @",
"  .@ @ @   oOOOooX           XooOooO           XooOOOo  @ @ @ @.",
". . @ @ @XXOOOOooX           XooOooO           XooOOOOXX @ @ @ .",
". .@ @ @ XXOOOOooX           XooOooO           XooOOOOXX@ @ @ @.",
"  . @ @ @XXoooOooX+          XooOooo         ooXooOoooXX @ @ @ .",
"   @ @ @ XXXoooXX +    ooo    oooooX   ooo   @ @XXoooXXX@ @ @ @.",
". @ @ @ @XXXoooXX      ooo    oooooX   ooo    @ XXoooXXX @ @ @ @",
".  @        XXoXX    oooooo           oooooo   @XXoXX @ @ @ @ @ ",
"                             @ @                     @ @ @ @ @ @",
"       +++++        @         @                       @.....@ @ "
};
