/* XPM */
static char *result[] = {
/* columns rows colors chars-per-pixel */
"64 64 5 1 ",
"  c black",
". c #736D6B",
"X c white",
"o c #C6C7C6",
"O c red",
/* pixels */
"    ..  ..  ..      ..  ..  ..    ..  ..  ..      ..  ..  ..    ",
"                                                                ",
"      XXXXX        o o.....o o     o ..... o o   o o.....o o    ",
"                  o o o o o o     o o o o o o   o o o o o o     ",
". o           o    o o o o o       o o o o o o   o o o o o     .",
".  o o o o o o              o       o             o o o o o    .",
"  o o o o o o              o   X   o               o o o o   X  ",
"  .o o o o o o              o  XX   o             o o o o o  X  ",
". . o o o o o              o   XX  o               o o o o   X .",
". .o o o o o o              o  XX   o             o o o o o  X .",
"  . o o o     ooooooooooooo          ooooooooooooo     o o   X  ",
"  .o o o      ooooooooooooo          ooooooooooooo      o o     ",
". o o o o     ooooooooooooo          ooooooooooooo     o o     .",
".  o o o      ooooooooooooo          ooooooooooooo      o o    .",
"  o o    oooooXXXX         ..........         XXXXooooo    o    ",
"   o     oooooXXXX         ..........         XXXXooooo         ",
"         oooooXXXX         ..........         XXXXooooo         ",
"         oooooXXXX         ..........         XXXXooooo         ",
"  o o    oooooXXXX         ..........         XXXXooooo     o   ",
"     ooooXXXXX....ooooo..................ooooo....XXXXXoooo     ",
"     ooooXXXXX....ooooo..................ooooo....XXXXXoooo     ",
"     ooooXXXXX....ooooo..................ooooo....XXXXXoooo     ",
"     ooooXXXXX....ooooo..................ooooo....XXXXXoooo     ",
"     XXXX     oooo............OOOO............oooo     XXXX     ",
"     XXXX     oooo............OOOO............oooo     XXXX     ",
"     XXXX     oooo............OOOO............oooo     XXXX     ",
"     XXXX     oooo............OOOO............oooo     XXXX     ",
"     XXXX     oooo............OOOO............oooo     XXXX     ",
"     XXXX     oooo...........OOOOOO...........oooo     XXXX     ",
"     XXXX     oooo.....OOOOOOOOOOOOOOOOOO.....oooo     XXXX     ",
"     XXXX     oooo.....OOOOOOOOOOOOOOOOOO.....oooo     XXXX     ",
"     XXXX     oooo.....OOOOOOOOOOOOOOOOOO.....oooo     XXXX     ",
"     XXXX     oooo...........OOOOOO...........oooo     XXXX     ",
"     XXXX.....XXXX............OOOO............XXXX.....XXXX     ",
"     XXXX.....XXXX............OOOO............XXXX.....XXXX     ",
"     XXXX.....XXXX............OOOO............XXXX.....XXXX     ",
"     XXXX.....XXXX............OOOO............XXXX.....XXXX     ",
"     oooo.....XXXXXXXXX..................XXXXXXXXX.....oooo     ",
"     oooo.....XXXXXXXXX..................XXXXXXXXX.....oooo     ",
"     oooo.....XXXXXXXXX..................XXXXXXXXX.....oooo     ",
"     oooo.....XXXXXXXXX..................XXXXXXXXX.....oooo     ",
"     oooo.....XXXXXXXXX..................XXXXXXXXX.....oooo     ",
"     ooooooooo    XXXXXoooo          ooooXXXXX    ooooooooo     ",
"     ooooooooo    XXXXXoooo          ooooXXXXX    ooooooooo     ",
"     ooooooooo    XXXXXoooo          ooooXXXXX    ooooooooo     ",
"     ooooooooo    XXXXXoooo          ooooXXXXX    ooooooooo     ",
"  o o    XXXXXoooo         o o    o o         ooooXXXXX    o o  ",
"   o     XXXXXoooo          o      o          ooooXXXXX     o   ",
"         XXXXXoooo                            ooooXXXXX         ",
"         XXXXXoooo                            ooooXXXXX         ",
"  o o    XXXXXoooo         . o o  o o         ooooXXXXX    . o o",
"   o o o      XXXXXXXXX     o o    o     XXXXXXXXX      o o o o ",
". o o o o     XXXXXXXXX    o o o. o o    XXXXXXXXX     o o o o o",
".  o o o      XXXXXXXXX     o o .  o     XXXXXXXXX      o o o o ",
"  . o o o     XXXXXXXXX    o o o  . o    XXXXXXXXX     o o o o o",
"  .o o o o o o              o o.  .o              X   o o o o o.",
". . o o o o o              o o .. . o             X  o o o o o .",
". .o o o o o o              o o.. .o              X   o o o o o.",
"  . o o o o o              o o .  . o             X  o o o o o .",
"   o o o o o o              o o.   o              X   o o o o o.",
". o o o o o o o      o o o o o o. o o o o o o o      o o o o o o",
".  o           o      o o o o o .  o           o      o o o o o ",
"                     o o o o o o                     o o o o o o",
"       XXXXX        o o.....o o        XXXXX        o o.....o o "
};
