/* XPM */
static char *result[] = {
/* columns rows colors chars-per-pixel */
"64 64 4 1 ",
"  c black",
". c #736D6B",
"X c #C6C7C6",
"o c white",
/* pixels */
"                                                                ",
"       ..  ..  ..  ..      ..  .       ..  ..  .                ",
"   XXXXXXXXXXXXXXXXXXXX  XXXXXXXXXXXXXX  XXXXXXXXXXXXXXXXXXXX   ",
"  X XXXXXXXXXXXXXXXXXXX..XXXXXXXXXXXXXX..XXXXXXXXXXXXXXXXXXX X  ",
"  XX XXXXXXXXXXXXXXXXXX..XXXXXXXXXXXXXX..XXXXXXXXXXXXXXXXXX XX  ",
"  XXX XXXXXXXXXXXXXXXXX..XXXXXXXXXXXXXX..XXXXXXXXXXXXXXXXX XXX  ",
"  XXXX XXXXXXXXXXXXXXXX..XXXXXXXXXXXXXX..XXXXXXXXXXXXXXXX XXXX  ",
"  XXXXX XXXXXXXXXXXXXXX..XXXXXXXXXXXXXX..XXXXXXXXXXXXXXX XXXXX. ",
"  XXXXXX XXXXXXXXXXXXXX..XXXXXXXXXXXXXX..XXXXXXXXXXXXXX XXXXXX. ",
"  XXXXXXX XXXXXXXXXXXXX..XXXXXXXXXXXXXX..XXXXXXXXXXXXX XXXXXXX  ",
"  XXXXXXXX XXXXXXXXXXXX  XXXXXXXXXXXXXX  XXXXXXXXXXXX XXXXXXXX  ",
"  XXXXXXXXX XXXXXXXXXXX  XXXXXXXXXXXXXX  XXXXXXXXXXX XXXXXXXXX. ",
"  XXXXXXXXXX XXXXXXXXX XX XXXXXXXXXXXX XX XXXXXXXXX XXXXXXXXXX. ",
"  XXXXXXXXXXX ....XXXX.XX.XXXX....XXXX.XX.XXX......XXXXXXXXXXX  ",
"  XXXXXXXXXXX. ....................................XXXXXXXXXXX  ",
"  XXXXXXXXXXX..    ..  ..  ..      ..  ..  ....  ..XXXXXXXXXXX. ",
" .XXXXXXXXXXX..    ..  ..  ..      ..  ..  ....  ..XXXXXXXXXXX. ",
"  XXXXXXXXXXX......................................XXXXXXXXXXX  ",
"  XXXXXXXXXXX.....XXXXXXXXXXXX....XXXXXXXXXXXX....XXXXXXXXXXXX  ",
" .XXXXXXXXXXXXXXXXXXXXXXXXXXXXXXXXXXXXXXXXXXXX....XXXXXXXXXXXX. ",
" .XXXXXXXXXXXXXXXXXXXXXXXXXXXXXXXXXXXXXXXXXXXX....XXXXXXXXXXXX. ",
"  XXXXXXXXXXXXXXXXXXXXXXXXXXXXXXXXXXXXXXXXXXXX.  .XXXXXXXXXXXX  ",
"  XXXXXXXXXXXXXXXXXXXXXXXXXXXXXXXXXXXXXXXXXXXX.  .. XXXXXXXXXX  ",
" .XXXXXXXXXXXXXXXXXXXXXXXXXXXXXXXXXXXXXXXXXXXX....XX  .......   ",
" .XXXXXXXXXXXXXXXXXXXXXXXXXXXXXXXXXXXXXXXXXXXX....XX  .......   ",
"  XXXXXXXXXXXXXXXXXXXXXXXXXXXXXXXXXXXXXXXXXXXX.  .. XXXXXXXXXX  ",
"  XXXXXXXXXXXXXXXXXXXXXXXXXXXXXXXXXXXXXXXXXXXX.  .XXXXXXXXXXXX  ",
"  XXXXXXXXXXXXXXXXXXXXXXXXXXXXXXXXXXXXXXXXXXXX....XXXXXXXXXXXX. ",
"  XXXXXXXXXXXXXXXXXXXXXXXXXXXXXXXXXXXXXXXXXXXX....XXXXXXXXXXXX. ",
"  XXXXXXXXXXXXXXXXXXXXXXXXXXXXXXXXXXXXXXXXXXXX.  .XXXXXXXXXXXX  ",
"                .  ..      ..  .  XXXXXXXXXXX..  ..XXXXXXXXXXX  ",
"                                 .XXXXXXXXXXX..  ..XXXXXXXXXXX. ",
"  ..       ..  ..  ..      ..    .XXXXXXXXXXX..  ..XXXXXXXXXXX. ",
" XXXXXX  XXXXXXXXXXXXXXXXXXXXX    XXXXXXXXXXX..  ..XXXXXXXXXXX  ",
" XXXXXX..XXXXXXXXXXXXXXXXXXXXX    XXXXXXXXXXXX.  .XXXXXXXXXXXX  ",
" XXXXXX..XXXXXXXXXXXXXXXXXXXXX.  .XXXXXXXXXXXX....XXXXXXXXXXXX. ",
" XXXXXX..XXXXXXXXXXXXXXXXXXXXX.  .XXXXXXXXXXXX....XXXXXXXXXXXX. ",
" XXXXXX..XXXXXXXXXXXXXXXXXXXXX    XXXXXXXXXXXX.  .XXXXXXXXXXXX  ",
" XXXXXX..XXXXXXXXXXXXXXXXXXXXX    XXXXXXXXXXXX.  .. XXXXXXXXXX  ",
" XXXXXX..XXXXXXXXXXXXXXXXXXXXX    XXXXXXXXXXXX....XX  .......   ",
" XXXXXX..XXXXXXXXXXXXXXXXXXXXX    XXXXXXXXXXXX....XX  .......   ",
" XXXXXX  XXXXXXXXXXXXXXXXXXXXX    XXXXXXXXXXXX.  .. XXXXXXXXXX  ",
" XXXXXX  XXXXXXXXXXXXXXXXXXXXX    XXXXXXXXXXXX.  .XXXXXXXXXXXX  ",
" XXXXX XX XXXXXXXXXXXXXXXXXXXX.  .XXXXXXXXXXXX....XXXXXXXXXXXX. ",
" .XXXX.XX.XXXXXXXXXXXXXXXXXXXX.  .XXXXXXXXXXXX....XXXXXXXXXXXX. ",
" .................XXXXXXXXXXXX    XXXXXXXXXXXX.  .XXXXXXXXXXXX  ",
"   ..  ..  ..    .XXXXXXXXXXXX    XXXXXXXXXXX..  ..XXXXXXXXXXX  ",
"                 .XXXXXXXXXXXX.  .XXXXXXXXXXX..  ..XXXXXXXXXXX. ",
"                 .XXXXXXXXXXXX.  .XXXXXXXXXXX..  ..XXXXXXXXXXX  ",
"     oooooo      .XXXXXXXXXXXX    XXXXXXXXXXX.... .XXXXXXXXXXX  ",
"                 .XXXXXXXXXXXX    XXXXXXXXXXX..... XXXXXXXXXXX  ",
"  X X X X X     ..XXXXXXXXXXXX.  .XXXXXXXXXXXXXXXXX XXXXXXXXXX  ",
" X X X X X X    ..XXXXXXXXXXXX.  .XXXXXXXXXXXXXXXXXX XXXXXXXXX  ",
" .X X X X X   o  .XXXXXXXXXXXX    XXXXXXXXXXXXXXXXXXX XXXXXXXX  ",
" . X X X X X  o  .. XXXXXXXXXX    XXXXXXXXXXXXXXXXXXXX XXXXXXX  ",
" .X X X X X   o ..XX  .......    .XXXXXXXXXXXXXXXXXXXXX XXXXXX  ",
" . X X X X X  o ..XX  .......    .XXXXXXXXXXXXXXXXXXXXXX XXXXX  ",
" .X X X X X   o  .. XXXXXXXXXX    XXXXXXXXXXXXXXXXXXXXXXX XXXX  ",
" X X X X X X     .XXXXXXXXXXXX    XXXXXXXXXXXXXXXXXXXXXXXX XXX  ",
"  X X X X X     ..XXXXXXXXXXXX.   XXXXXXXXXXXXXXXXXXXXXXXXX XX  ",
" X X X X X X    ..XXXXXXXXXXXX.   XXXXXXXXXXXXXXXXXXXXXXXXXX X  ",
"  X X X X X      .XXXXXXXXXXXX    XXXXXXXXXXXXXXXXXXXXXXXXXXX   ",
" X X ..... X     ..XXXXXXXXXXX                  .  ..  ..       ",
"                                                                "
};
