/* XPM */
static char *result[] = {
/* columns rows colors chars-per-pixel */
"64 64 4 1 ",
"  c black",
". c #736D6B",
"X c #C6C7C6",
"o c white",
/* pixels */
"                                                                ",
"       ..  ..  ..  ..      ..  ..  ..      ..  .                ",
"   XXXXXXXXXXXXXXXXXXXX  XXXXXXXXXXXXXX  XXXXXXXXXXXXXXXXXXXX   ",
"  X XXXXXXXXXXXXXXXXXXX..XXXXXXXXXXXXXX..XXXXXXXXXXXXXXXXXXX X  ",
"  XX XXXXXXXXXXXXXXXXXX..XXXXXXXXXXXXXX..XXXXXXXXXXXXXXXXXX XX  ",
"  XXX XXXXXXXXXXXXXXXXX..XXXXXXXXXXXXXX..XXXXXXXXXXXXXXXXX XXX  ",
"  XXXX XXXXXXXXXXXXXXXX..XXXXXXXXXXXXXX..XXXXXXXXXXXXXXXX XXXX  ",
"  XXXXX XXXXXXXXXXXXXXX..XXXXXXXXXXXXXX..XXXXXXXXXXXXXXX XXXXX. ",
"  XXXXXX XXXXXXXXXXXXXX..XXXXXXXXXXXXXX..XXXXXXXXXXXXXX XXXXXX. ",
"  XXXXXXX XXXXXXXXXXXXX..XXXXXXXXXXXXXX..XXXXXXXXXXXXX XXXXXXX  ",
"  XXXXXXXX XXXXXXXXXXXX  XXXXXXXXXXXXXX  XXXXXXXXXXXX XXXXXXXX  ",
"  XXXXXXXXX XXXXXXXXXXX  XXXXXXXXXXXXXX  XXXXXXXXXXX XXXXXXXXX. ",
"  XXXXXXXXXX XXXXXXXXX XX XXXXXXXXXXXX XX XXXXXXXXX XXXXXXXXXX. ",
"  XXXXXXXXXXX.....XXXX.XX.XXXX....XXXX.XX.XXXX.... XXXXXXXXXXX  ",
"  XXXXXXXXXXX.................................... .XXXXXXXXXXX  ",
"  XXXXXXXXXXX..  ....  ..  ..      ..  ..  ..    ..XXXXXXXXXXX. ",
" .XXXXXXXXXXX..  ....  ..  ..      ..  ..  ..    ..XXXXXXXXXXX  ",
"  XXXXXXXXXXX......................................XXXXXXXXXXX  ",
"  XXXXXXXXXXX.....XXXXXXXXXXXX....XXXXXXXXXXXX.....XXXXXXXXXXX  ",
" .XXXXXXXXXXXX....XXXXXXXXXXXXXXXXXXXXXXXXXXXXXXXXXXXXXXXXXXXX  ",
" .XXXXXXXXXXXX....XXXXXXXXXXXXXXXXXXXXXXXXXXXXXXXXXXXXXXXXXXXX  ",
"  XXXXXXXXXXXX.  .XXXXXXXXXXXXXXXXXXXXXXXXXXXXXXXXXXXXXXXXXXXX  ",
"  XXXXXXXXXX ..  .XXXXXXXXXXXXXXXXXXXXXXXXXXXXXXXXXXXXXXXXXXXX  ",
" . .......  XX....XXXXXXXXXXXXXXXXXXXXXXXXXXXXXXXXXXXXXXXXXXXX  ",
" . .......  XX....XXXXXXXXXXXXXXXXXXXXXXXXXXXXXXXXXXXXXXXXXXXX  ",
"  XXXXXXXXXX ..  .XXXXXXXXXXXXXXXXXXXXXXXXXXXXXXXXXXXXXXXXXXXX  ",
"  XXXXXXXXXXXX.  .XXXXXXXXXXXXXXXXXXXXXXXXXXXXXXXXXXXXXXXXXXXX  ",
"  XXXXXXXXXXXX....XXXXXXXXXXXXXXXXXXXXXXXXXXXXXXXXXXXXXXXXXXXX  ",
"  XXXXXXXXXXXX....XXXXXXXXXXXXXXXXXXXXXXXXXXXXXXXXXXXXXXXXXXXX  ",
"  XXXXXXXXXXXX.  .XXXXXXXXXXXXXXXXXXXXXXXXXXXXXXXXXXXXXXXXXXXX  ",
"  XXXXXXXXXXX..  ..XXXXXXXXXXX ..  ..      ..  ..  ..  ..       ",
"  XXXXXXXXXXX..  ..XXXXXXXXXXX                                  ",
" .XXXXXXXXXXX..  ..XXXXXXXXXXX.                                 ",
"  XXXXXXXXXXX..  ..XXXXXXXXXXX     ..      ..  ..  ..      ..   ",
"  XXXXXXXXXXXX.  .XXXXXXXXXXXX   XXXXXXXXXXXXXXXXXXXXXX  XXXXXX ",
" .XXXXXXXXXXXX....XXXXXXXXXXXX. .XXXXXXXXXXXXXXXXXXXXXX..XXXXXX ",
" .XXXXXXXXXXXX....XXXXXXXXXXXX. .XXXXXXXXXXXXXXXXXXXXXX..XXXXXX ",
"  XXXXXXXXXXXX.  .XXXXXXXXXXXX   XXXXXXXXXXXXXXXXXXXXXX..XXXXXX ",
"  XXXXXXXXXX ..  .XXXXXXXXXXXX   XXXXXXXXXXXXXXXXXXXXXX..XXXXXX ",
"   .......  XX....XXXXXXXXXXXX   XXXXXXXXXXXXXXXXXXXXXX..XXXXXX ",
"   .......  XX....XXXXXXXXXXXX   XXXXXXXXXXXXXXXXXXXXXX..XXXXXX ",
"  XXXXXXXXXX ..  .XXXXXXXXXXXX   XXXXXXXXXXXXXXXXXXXXXX..XXXXXX ",
"  XXXXXXXXXXXX.  .XXXXXXXXXXXX   XXXXXXXXXXXXXXXXXXXXXX  XXXXXX ",
" .XXXXXXXXXXXX....XXXXXXXXXXXX. .XXXXXXXXXXXXXXXXXXXXXX  XXXXXX ",
" .XXXXXXXXXXXX....XXXXXXXXXXXX. .XXXXXXXXXXXXXXXXXXXXX XX XXXXX ",
"  XXXXXXXXXXXX.  .XXXXXXXXXXXX   XXXXXXXXXXXXXXXXXXXXX.XX.XXXX. ",
"  XXXXXXXXXXX..  ..XXXXXXXXXXX   XXXXXXXXXXXX.................. ",
" .XXXXXXXXXXX..  ..XXXXXXXXXXX. .XXXXXXXXXXXX.     ..  ..  ..   ",
" .XXXXXXXXXXX..  ..XXXXXXXXXXX  .XXXXXXXXXXXX.                  ",
"  XXXXXXXXXXX. ....XXXXXXXXXXX   XXXXXXXXXXXX.       ooooo      ",
"  XXXXXXXXXXX .....XXXXXXXXXXX   XXXXXXXXXXXX.                  ",
" .XXXXXXXXXX XXXXXXXXXXXXXXXXX  .XXXXXXXXXXXX..                 ",
" .XXXXXXXXX XXXXXXXXXXXXXXXXXX  .XXXXXXXXXXXX..     X X X X X X ",
"  XXXXXXXX XXXXXXXXXXXXXXXXXXX   XXXXXXXXXXXX.   o X X X X X X  ",
"  XXXXXXX XXXXXXXXXXXXXXXXXXXX   XXXXXXXXXX ..   o  X X X X X . ",
" .XXXXXX XXXXXXXXXXXXXXXXXXXXX    .......  XX..  o X X X X X X. ",
" .XXXXX XXXXXXXXXXXXXXXXXXXXXX    .......  XX..  o  X X X X X . ",
"  XXXX XXXXXXXXXXXXXXXXXXXXXXX   XXXXXXXXXX ..   o X X X X X X. ",
"  XXX XXXXXXXXXXXXXXXXXXXXXXXX   XXXXXXXXXXXX.   o  X X X X X . ",
"  XX XXXXXXXXXXXXXXXXXXXXXXXXX   XXXXXXXXXXXX..    X X X X X X  ",
"  X XXXXXXXXXXXXXXXXXXXXXXXXXX  .XXXXXXXXXXXX..     X X X X X X ",
"   XXXXXXXXXXXXXXXXXXXXXXXXXXX  .XXXXXXXXXXXX.     X X X X X X  ",
"                .  ..  ..        XXXXXXXXXXX..      X.....X X X ",
"                                                                "
};
