/* XPM */
static char *result[] = {
/* columns rows colors chars-per-pixel */
"64 64 4 1 ",
"  c black",
". c #736D6B",
"X c #C6C7C6",
"o c white",
/* pixels */
"                                                                ",
"       ..  ..  .                  XXXXXXXXXXX..     X ..... X X ",
"   XXXXXXXXXXXXXXXXXXXXXXXXXXX    XXXXXXXXXXXX.      X X X X X  ",
"  X XXXXXXXXXXXXXXXXXXXXXXXXXX   .XXXXXXXXXXXX..    X X X X X X ",
"  XX XXXXXXXXXXXXXXXXXXXXXXXXX   .XXXXXXXXXXXX..     X X X X X  ",
"  XXX XXXXXXXXXXXXXXXXXXXXXXXX    XXXXXXXXXXXX.     X X X X X X ",
"  XXXX XXXXXXXXXXXXXXXXXXXXXXX    XXXXXXXXXX ..  o   X X X X X. ",
"  XXXXX XXXXXXXXXXXXXXXXXXXXXX.    .......  XX.. o  X X X X X . ",
"  XXXXXX XXXXXXXXXXXXXXXXXXXXX.    .......  XX.. o   X X X X X. ",
"  XXXXXXX XXXXXXXXXXXXXXXXXXXX    XXXXXXXXXX ..  o  X X X X X . ",
"  XXXXXXXX XXXXXXXXXXXXXXXXXXX    XXXXXXXXXXXX.  o   X X X X X. ",
"  XXXXXXXXX XXXXXXXXXXXXXXXXXX.  .XXXXXXXXXXXX..    X X X X X X ",
"  XXXXXXXXXX XXXXXXXXXXXXXXXXX.  .XXXXXXXXXXXX..     X X X X X  ",
"  XXXXXXXXXXX .....XXXXXXXXXXX    XXXXXXXXXXXX.                 ",
"  XXXXXXXXXXX. ....XXXXXXXXXXX    XXXXXXXXXXXX.      oooooo     ",
"  XXXXXXXXXXX..  ..XXXXXXXXXXX.  .XXXXXXXXXXXX.                 ",
" .XXXXXXXXXXX..  ..XXXXXXXXXXX.  .XXXXXXXXXXXX.                 ",
"  XXXXXXXXXXX..  ..XXXXXXXXXXX    XXXXXXXXXXXX.    ..  ..  ..   ",
"  XXXXXXXXXXXX.  .XXXXXXXXXXXX    XXXXXXXXXXXX................. ",
" .XXXXXXXXXXXX....XXXXXXXXXXXX.  .XXXXXXXXXXXXXXXXXXXX.XX.XXXX. ",
" .XXXXXXXXXXXX....XXXXXXXXXXXX.  .XXXXXXXXXXXXXXXXXXXX XX XXXXX ",
"  XXXXXXXXXXXX.  .XXXXXXXXXXXX    XXXXXXXXXXXXXXXXXXXXX  XXXXXX ",
"  XXXXXXXXXX ..  .XXXXXXXXXXXX    XXXXXXXXXXXXXXXXXXXXX  XXXXXX ",
"   .......  XX....XXXXXXXXXXXX    XXXXXXXXXXXXXXXXXXXXX..XXXXXX ",
"   .......  XX....XXXXXXXXXXXX    XXXXXXXXXXXXXXXXXXXXX..XXXXXX ",
"  XXXXXXXXXX ..  .XXXXXXXXXXXX    XXXXXXXXXXXXXXXXXXXXX..XXXXXX ",
"  XXXXXXXXXXXX.  .XXXXXXXXXXXX    XXXXXXXXXXXXXXXXXXXXX..XXXXXX ",
" .XXXXXXXXXXXX....XXXXXXXXXXXX.  .XXXXXXXXXXXXXXXXXXXXX..XXXXXX ",
" .XXXXXXXXXXXX....XXXXXXXXXXXX.  .XXXXXXXXXXXXXXXXXXXXX..XXXXXX ",
"  XXXXXXXXXXXX.  .XXXXXXXXXXXX    XXXXXXXXXXXXXXXXXXXXX..XXXXXX ",
"  XXXXXXXXXXX..  ..XXXXXXXXXXX    XXXXXXXXXXXXXXXXXXXXX  XXXXXX ",
" .XXXXXXXXXXX..  ..XXXXXXXXXXX.    ..      ..  ..  ..       ..  ",
" .XXXXXXXXXXX..  ..XXXXXXXXXXX.                                 ",
"  XXXXXXXXXXX..  ..XXXXXXXXXXX  .  ..      ..  .                ",
"  XXXXXXXXXXXX.  .XXXXXXXXXXXXXXXXXXXXXXXXXXXXXXXXXXXXXXXXXXXX  ",
" .XXXXXXXXXXXX....XXXXXXXXXXXXXXXXXXXXXXXXXXXXXXXXXXXXXXXXXXXX  ",
" .XXXXXXXXXXXX....XXXXXXXXXXXXXXXXXXXXXXXXXXXXXXXXXXXXXXXXXXXX  ",
"  XXXXXXXXXXXX.  .XXXXXXXXXXXXXXXXXXXXXXXXXXXXXXXXXXXXXXXXXXXX  ",
"  XXXXXXXXXX ..  .XXXXXXXXXXXXXXXXXXXXXXXXXXXXXXXXXXXXXXXXXXXX  ",
"   .......  XX....XXXXXXXXXXXXXXXXXXXXXXXXXXXXXXXXXXXXXXXXXXXX. ",
"   .......  XX....XXXXXXXXXXXXXXXXXXXXXXXXXXXXXXXXXXXXXXXXXXXX. ",
"  XXXXXXXXXX ..  .XXXXXXXXXXXXXXXXXXXXXXXXXXXXXXXXXXXXXXXXXXXX  ",
"  XXXXXXXXXXXX.  .XXXXXXXXXXXXXXXXXXXXXXXXXXXXXXXXXXXXXXXXXXXX  ",
" .XXXXXXXXXXXX....XXXXXXXXXXXXXXXXXXXXXXXXXXXXXXXXXXXXXXXXXXXX. ",
" .XXXXXXXXXXXX....XXXXXXXXXXXXXXXXXXXXXXXXXXXXXXXXXXXXXXXXXXXX. ",
"  XXXXXXXXXXXX....XXXXXXXXXXXX....XXXXXXXXXXXX.....XXXXXXXXXXX  ",
"  XXXXXXXXXXX......................................XXXXXXXXXXX  ",
" .XXXXXXXXXXX..  ....  ..  ..      ..  ..  ..    ..XXXXXXXXXXX. ",
" .XXXXXXXXXXX..  ....  ..  ..      ..  ..  ..    ..XXXXXXXXXXX  ",
"  XXXXXXXXXXX.................................... .XXXXXXXXXXX  ",
"  XXXXXXXXXXX......XXX.XX.XXXX....XXXX.XX.XXXX.... XXXXXXXXXXX  ",
" .XXXXXXXXXX XXXXXXXXX XX XXXXXXXXXXXX XX XXXXXXXXX XXXXXXXXXX  ",
" .XXXXXXXXX XXXXXXXXXXX  XXXXXXXXXXXXXX  XXXXXXXXXXX XXXXXXXXX  ",
"  XXXXXXXX XXXXXXXXXXXX  XXXXXXXXXXXXXX  XXXXXXXXXXXX XXXXXXXX  ",
"  XXXXXXX XXXXXXXXXXXXX..XXXXXXXXXXXXXX..XXXXXXXXXXXXX XXXXXXX  ",
" .XXXXXX XXXXXXXXXXXXXX..XXXXXXXXXXXXXX..XXXXXXXXXXXXXX XXXXXX  ",
" .XXXXX XXXXXXXXXXXXXXX..XXXXXXXXXXXXXX..XXXXXXXXXXXXXXX XXXXX  ",
"  XXXX XXXXXXXXXXXXXXXX..XXXXXXXXXXXXXX..XXXXXXXXXXXXXXXX XXXX  ",
"  XXX XXXXXXXXXXXXXXXXX..XXXXXXXXXXXXXX..XXXXXXXXXXXXXXXXX XXX  ",
"  XX XXXXXXXXXXXXXXXXXX..XXXXXXXXXXXXXX..XXXXXXXXXXXXXXXXXX XX  ",
"  X XXXXXXXXXXXXXXXXXXX..XXXXXXXXXXXXXX..XXXXXXXXXXXXXXXXXXX X  ",
"   XXXXXXXXXXXXXXXXXXXX  XXXXXXXXXXXXXX  XXXXXXXXXXXXXXXXXXXX   ",
"                .  ..  ..       .  ..      ..  ..  ..  ..       ",
"                                                                "
};
