/* XPM */
static char *result[] = {
/* columns rows colors chars-per-pixel */
"64 64 4 1 ",
"  c black",
". c #C6C7C6",
"X c #736D6B",
"o c white",
/* pixels */
"                                                                ",
" . . .XXXXX.      XX...........        XX  XX  X                ",
"  . . . . . .     X............X  ...........................   ",
" . . . . . .     XX............X  .......................... .  ",
"  . . . . . .    XX............   ......................... ..  ",
" X . . . . .  o   X............   ........................ ...  ",
" X. . . . . . o   XX ..........   ....................... ....  ",
" X . . . . .  o  XX..  XXXXXXX    ...................... .....X ",
" X. . . . . . o  XX..  XXXXXXX    ..................... ......X ",
" X . . . . .  o   XX ..........   .................... .......  ",
"  . . . . . . o   X............   ................... ........  ",
" . . . . . .     XX............X  .................. .........X ",
"                 XX............X  ................. ..........X ",
"                  X............   ...........XXXXX ...........  ",
"      ooooo       X............   ...........XXXX X...........  ",
"                  X............X  ...........XX  XX...........X ",
"   XX  XX  XX     X............X X...........XX  XX...........X ",
" XXXXXXXXXXXXXXXXXX............   ...........XX  XX...........  ",
" X....X..X.....................   ............X  X............  ",
" ..... .. .....................X X............XXXX............X ",
" ......  ......................X X............XXXX............X ",
" ......  ......................   ............X  X............  ",
" ......XX......................   ............X  XX ..........  ",
" ......XX......................   ............XXXX..  XXXXXXX   ",
" ......XX......................   ............XXXX..  XXXXXXX   ",
" ......XX......................   ............X  XX ..........  ",
" ......XX......................   ............X  X............  ",
" ......XX......................X X............XXXX............X ",
" ......XX......................X X............XXXX............X ",
" ......  ......................   ............X  X............  ",
"   XX      XX  XX  XX      XX     ...........XX  XX...........  ",
"                                 X...........XX  XX...........X ",
"                                  ...........XX  XX...........  ",
"       XX  XX  XX  XX      XX  XX ...........XX  XX...........  ",
"  ............................................X  X............  ",
"  ............................................XXXX............  ",
"  ............................................XXXX............  ",
"  ............................................X  X............  ",
"  ............................................X  XX ..........  ",
"  ............................................XXXX..  XXXXXXX X ",
"  ............................................XXXX..  XXXXXXX X ",
"  ............................................X  XX ..........  ",
"  ............................................X  X............  ",
"  ............................................XXXX............X ",
"  ............................................XXXX............X ",
"  ...........XXXXX............XXXX............XXXXX...........  ",
"  ...........XXXXXXXXXXXXXXXXXXXXXXXXXXXXXXXXXXXXXX...........  ",
"  ...........XX    XX  XX  XX      XX  XX  XXXX  XX...........X ",
" X...........XX    XX  XX  XX      XX  XX  XXXX  XX...........  ",
"  ...........X XXXXXXXXXXXXXXXXXXXXXXXXXXXXXXXXXXXX...........  ",
"  ........... XXXX....X..X....XXXX....X..X....XXXXX...........  ",
" X.......... ......... .. ............ .. ......... ..........  ",
" X......... ...........  ..............  ........... .........  ",
"  ........ ............  ..............  ............ ........  ",
"  ....... .............XX..............XX............. .......  ",
" X...... ..............XX..............XX.............. ......  ",
" X..... ...............XX..............XX............... .....  ",
"  .... ................XX..............XX................ ....  ",
"  ... .................XX..............XX................. ...  ",
"  .. ..................XX..............XX.................. ..  ",
"  . ...................XX..............XX................... .  ",
"   ....................  ..............  ....................   ",
"                X  XX      XX  XX  XX      XX  XX  XX  XX       ",
"                                                                "
};
