/* XPM */
static char *result[] = {
/* columns rows colors chars-per-pixel */
"64 64 4 1 ",
"  c black",
". c #736D6B",
"X c white",
"o c #C6C7C6",
/* pixels */
"    ..  ..  ..      ..  ..  ..    ..  ..  ..      ..  ..  ..    ",
"                                                                ",
"      XXXXX        o o.....o o     o ..... o o   o o.....o o    ",
"                  o o o o o o     o o o o o o   o o o o o o     ",
". o                  o o                 o o             o     .",
".  o o o            o o                 o o             o o    .",
"  o o o              o o                 o o             o   X  ",
"  .o o o            o o                 o o             o o  X  ",
". .     XXXXoooo        ....oooooooo....        ooooXXXX     X .",
". .o    XXXXoooo        ....oooooooo....        ooooXXXX     X .",
"  .     XXXXoooo        ....oooooooo....        ooooXXXX     X  ",
"  .o    XXXXoooo        ....oooooooo....        ooooXXXX        ",
"    XXXXoooo    ....ooooXXXXXXXXXXXXXXXXoooo....    ooooXXXX    ",
"    XXXXoooo    ....ooooXXXXXXXXXXXXXXXXoooo....    ooooXXXX    ",
"    XXXXoooo    ....ooooXXXXXXXXXXXXXXXXoooo....    ooooXXXX    ",
"    XXXXoooo    ....ooooXXXXXXXXXXXXXXXXoooo....    ooooXXXX    ",
"    oooo    ....ooooXXXXXXXXXXXXXXXXXXXXXXXXoooo....    oooo    ",
"    oooo    ....ooooXXXXXXXXXXXXXXXXXXXXXXXXoooo....    oooo    ",
"    oooo    ....ooooXXXXXXXXXXXXXXXXXXXXXXXXoooo....    oooo    ",
"    oooo    ....ooooXXXXXXXXXXXXXXXXXXXXXXXXoooo....    oooo    ",
". o         ....XXXX    XXXXXXXXXXXXXXXX    XXXX....        o  .",
".  o        ....XXXX    XXXXXXXXXXXXXXXX    XXXX....         o .",
"  .         ....XXXX    XXXXXXXXXXXXXXXX    XXXX....        o.  ",
"  .o        ....XXXX    XXXXXXXXXXXXXXXX    XXXX....         .  ",
". .     ....XXXX            XXXXXXXX            XXXX....    o. .",
". .o    ....XXXX            XXXXXXXX            XXXX....     . .",
"  .     ....XXXX            XXXXXXXX            XXXX....    o.  ",
"   o    ....XXXX            XXXXXXXX            XXXX....     o  ",
". o     ooooXXXX            XXXXXXXX            XXXXoooo    o  .",
".  o    ooooXXXX            XXXXXXXX            XXXXoooo     o .",
"        ooooXXXX            XXXXXXXX            XXXXoooo        ",
"        ooooXXXX            XXXXXXXX            XXXXoooo        ",
"        ooooXXXXoooo        XXXXXXXX        ooooXXXXoooo    ..  ",
"        ooooXXXXoooo        XXXXXXXX        ooooXXXXoooo        ",
"        ooooXXXXoooo        XXXXXXXX        ooooXXXXoooo     o  ",
"        ooooXXXXoooo        XXXXXXXX        ooooXXXXoooo    o   ",
". o     ....XXXXXXXXooooooooXXXXXXXXooooooooXXXXXXXX....        ",
".  o    ....XXXXXXXXooooooooXXXXXXXXooooooooXXXXXXXX....    o   ",
"  o     ....XXXXXXXXooooooooXXXXXXXXooooooooXXXXXXXX....       X",
"  .o    ....XXXXXXXXooooooooXXXXXXXXooooooooXXXXXXXX....    o  X",
". . o o     ....XXXXXXXXXXXXXXXXXXXXXXXXXXXXXXXX....     o o   X",
". .o o o    ....XXXXXXXXXXXXXXXXXXXXXXXXXXXXXXXX....    o o o  X",
"  . o o     ....XXXXXXXXXXXXXXXXXXXXXXXXXXXXXXXX....     o o   X",
"  .o o o    ....XXXXXXXXXXXXXXXXXXXXXXXXXXXXXXXX....    o o o   ",
". o     ....    ooooXXXXXXXXooooooooXXXXXXXXoooo    ....        ",
".  o    ....    ooooXXXXXXXXooooooooXXXXXXXXoooo    ....    o   ",
"  o     ....    ooooXXXXXXXXooooooooXXXXXXXXoooo    ....     o  ",
"   o    ....    ooooXXXXXXXXooooooooXXXXXXXXoooo    ....    o   ",
"    oooo        ....ooooXXXX        XXXXoooo....        oooo    ",
"    oooo        ....ooooXXXX        XXXXoooo....        oooo    ",
"    oooo        ....ooooXXXX        XXXXoooo....        oooo    ",
"    oooo        ....ooooXXXX        XXXXoooo....        oooo    ",
"    XXXXoooo        ....oooo        oooo....        ooooXXXX    ",
"    XXXXoooo        ....oooo        oooo....        ooooXXXX    ",
"    XXXXoooo        ....oooo        oooo....        ooooXXXX    ",
"    XXXXoooo        ....oooo        oooo....        ooooXXXX    ",
". .     XXXXXXXXoooo                        ooooXXXXXXXX     o .",
". .o    XXXXXXXXoooo                        ooooXXXXXXXX    o o.",
"  .     XXXXXXXXoooo                        ooooXXXXXXXX     o .",
"   o    XXXXXXXXoooo                        ooooXXXXXXXX    o o.",
". o o o              o o o o o o. o o o o o              o o o o",
".  o                  o o o o o .  o                    o o o o ",
"                     o o o o o o                         o o o o",
"       X            o o.....o o        XXXXX            ....o o "
};
