/* XPM */
static char *result[] = {
/* columns rows colors chars-per-pixel */
"64 64 4 1 ",
"  c black",
". c #736D6B",
"X c white",
"o c #C6C7C6",
/* pixels */
"    ..  ..  ..                                    ..  ..  ..    ",
"                                                                ",
"      XXXXX        o                         o   o o.....o o    ",
"                  o                         o   o o o o o o     ",
". o           o     XXXXXXXXXXXXXXXXXXXXXXXX     o o o o o     .",
".  o o o o o o o    XXXXXXXXXXXXXXXXXXXXXXXX    o o o o o o    .",
"  o o o o o o o     XXXXXXXXXXXXXXXXXXXXXXXX    .o o o o o   X  ",
"  .o o o o o o .    XXXXXXXXXXXXXXXXXXXXXXXX    . o o o o o  X  ",
". . o o o o     XXXXXXXXXXXXXXXXXXXXXXXXXXXXXXXX     o o o   X .",
". .o o o o o    XXXXXXXXXXXXXXXXXXXXXXXXXXXXXXXX    o o o o  X .",
"  . o o o o     XXXXXXXXXXXXXXXXXXXXXXXXXXXXXXXX     o o o   X  ",
"  .o o o o o    XXXXXXXXXXXXXXXXXXXXXXXXXXXXXXXX    o o o o     ",
". o o o o o         XXXXXXXXXXXXXXXXXXXXXXXX         o o o     .",
".  o o o o o        XXXXXXXXXXXXXXXXXXXXXXXX        o o o o    .",
"  o o o o o         XXXXXXXXXXXXXXXXXXXXXXXX         o o o o    ",
"   o o.....o        XXXXXXXXXXXXXXXXXXXXXXXX        ..... o     ",
"            oooo                                oooo            ",
"            oooo                                oooo            ",
"  o o o.    oooo                                oooo    ..o o   ",
"   o o o    oooo                                oooo     o o o  ",
". o     XXXXXXXX            XXXXXXXX            XXXXXXXX    o  .",
".  o    XXXXXXXX            XXXXXXXX            XXXXXXXX     o .",
"  .     XXXXXXXX            XXXXXXXX            XXXXXXXX    o.  ",
"  .o    XXXXXXXX            XXXXXXXX            XXXXXXXX     .  ",
". .     XXXXXXXXXXXXXXXXXXXX........XXXXXXXXXXXXXXXXXXXX    o. .",
". .o    XXXXXXXXXXXXXXXXXXXX........XXXXXXXXXXXXXXXXXXXX     . .",
"  .     XXXXXXXXXXXXXXXXXXXX........XXXXXXXXXXXXXXXXXXXX    o.  ",
"   o    XXXXXXXXXXXXXXXXXXXX........XXXXXXXXXXXXXXXXXXXX     o  ",
". o     XXXXXXXXXXXX........XXXXXXXX........XXXXXXXXXXXX    o  .",
".  o    XXXXXXXXXXXX........XXXXXXXX........XXXXXXXXXXXX     o .",
"        XXXXXXXXXXXX........XXXXXXXX........XXXXXXXXXXXX        ",
"        XXXXXXXXXXXX........XXXXXXXX........XXXXXXXXXXXX        ",
"    ..      XXXXXXXXXXXXXXXXXXXXXXXXXXXXXXXXXXXXXXXX    ..  ..  ",
"            XXXXXXXXXXXXXXXXXXXXXXXXXXXXXXXXXXXXXXXX            ",
"      XX    XXXXXXXXXXXXXXXXXXXXXXXXXXXXXXXXXXXXXXXX    ...o o  ",
"            XXXXXXXXXXXXXXXXXXXXXXXXXXXXXXXXXXXXXXXX    o o o   ",
". o             XXXX    XXXX        XXXX    XXXX     o o o o    ",
".  o o o        XXXX    XXXX        XXXX    XXXX    o o o o o   ",
"  o o o         XXXX    XXXX        XXXX    XXXX     o o o o   X",
"  .o o o        XXXX    XXXX        XXXX    XXXX    o o o o o  X",
". .     oooo    XXXXXXXXXXXX        XXXXXXXXXXXX         o o   X",
". .o    oooo    XXXXXXXXXXXX        XXXXXXXXXXXX        o o o  X",
"  .     oooo    XXXXXXXXXXXX        XXXXXXXXXXXX         o o   X",
"  .o    oooo    XXXXXXXXXXXX        XXXXXXXXXXXX        o o o   ",
". o     XXXXXXXX            XXXXXXXX            oooooooo        ",
".  o    XXXXXXXX            XXXXXXXX            oooooooo    o   ",
"  o     XXXXXXXX            XXXXXXXX            oooooooo     o  ",
"   o    XXXXXXXX            XXXXXXXX            oooooooo    o   ",
"            XXXXXXXX    ooooooooooooooooXXXX        XXXX        ",
"            XXXXXXXX    ooooooooooooooooXXXX        XXXX        ",
"  o         XXXXXXXX    ooooooooooooooooXXXX        XXXX     o o",
"   o        XXXXXXXX    ooooooooooooooooXXXX        XXXX    o o ",
". o o o     XXXXXXXX    XXXXXXXXXXXXXXXXXXXX             o o o o",
".  o o o    XXXXXXXX    XXXXXXXXXXXXXXXXXXXX            o o o o ",
"  . o o     XXXXXXXX    XXXXXXXXXXXXXXXXXXXX             o o o o",
"  .o o o    XXXXXXXX    XXXXXXXXXXXXXXXXXXXX            o o o o.",
". . o o o o                                 XXXXXXXXXXXX     o .",
". .o o o o o                                XXXXXXXXXXXX    o o.",
"  . o o o o                                 XXXXXXXXXXXX     o .",
"   o o o o o                                XXXXXXXXXXXX    o o.",
". o o o o o o o                                          o o o o",
".  o           o                                        o o o o ",
"                                                         o o o o",
"       XXXXX                                            ....o o "
};
