/* XPM */
static char *result[] = {
/* columns rows colors chars-per-pixel */
"64 64 7 1 ",
"  c black",
". c #736D6B",
"X c #C6C7C6",
"o c white",
"O c #000084",
"+ c #4241FF",
"@ c red",
/* pixels */
"                                                                ",
".   ...  ........................   ...  ...   ..   ...  ...   .",
".   ...  ........................   ...  ...   ..   ...  ...   .",
"X..XXXXXXXXXX................XXXXXXXXXXX.XXXXXXXXXXXXXXXXXXXXXXX",
"X..XXXXXXXXX...             ...XXXXXXXXX.XXXXXXX           XXXXX",
"X..XXXXXXXX..                ...XXXXXXXX.XXXXXX ooooooooooo XXXX",
"X..XXXXXXXX..                ...XXXXXXXX.XXXXXX ooooooooooo XXXX",
"X..XXXXXX...                   ..XXXXXXX.XXXXXX oOO++++++oo XXXX",
"X..XXXXXX..                     .XXXXXXX.XXXXXX oOOoO++O+oo XXXX",
"X..XXXXXX..                     .XXXXXXX.XXXXXX o++++++++oo XXXX",
"X..XXXXXX..                     .XXXXXXX.XXXXXX o++++++++oo XXXX",
"X..XXXXXX..                     .XXXXXXX.XXXXXXX           XXXXX",
"X..XXXXXX..                     .XXXXXXX.XXXXXX .XX........ XXXX",
"X..XXXXXX..                     .XXXXXXX.XXXXXX             XXXX",
"XXX..XXXX..                     .XXXX...XXXXXXXX  o  o   @ XXXXX",
"XXX..XXXX..  XX X  X   X XX X   .XXXX...XXXXXXXX           XXXXX",
"XXXXX..XX.. X  X XX XXX X  X XX .XXX.XXXXXXXXXXXXXX.XXXXXXXXXXXX",
"XXXXX......  XX X  X   X XX X   .....XXXXXXXXXXXXXX.XXXXXXXXXXXX",
".......     .   .        ..  ..     ............................",
".......     .   .        ..  ..     ............................",
"    ...  ...   .           .   ..   ...        ..   ...  ...    ",
".  X X X X X X X      X X X X X  X X X X X X X   X X X X X X X .",
"  . X X X X X X.     X X X X X XX X X X X X X   . X X X X X X.  ",
"  .X X X X X X .  o   X X X X X..X X X X X X .  .X X X X X X .  ",
". . X X X X X X.  o  X X X X X .. X X X X X X.  . X X X X X X. .",
". .X X X X X X .  o   X X X X X..X X X X X X .  .X X X X X X . .",
"  . X X X X X X.  o  X X X X X .. X X X X X X.  . X X X X X X.  ",
"   X X X X X X X  o   X X X X X..X X X X X X .   X X X X X X X  ",
". X X X X X X X      X X X X X XX X X X X X X   X X X X X X X  .",
".  X           X      X X X X X  X X X X X X X   X           X .",
"                     X X X X X XX X X X X X X                   ",
"       ooooo        X X.....X X  X X.....X X X       ooooo      ",
"    ..  ..  ..      ..  ..  ..      ..  ..  ..      ..  ..  ..  ",
"                                                                ",
"      ooooo        X X.....X X        ooooo        X X.....X X  ",
"                  X X X X X X                     X X X X X X   ",
". X           X    X X X X X    . X           X    X X X X X    ",
".  X X X X X X X  X X X X X X   .  X X X X X X X  X X X X X X   ",
"  X X X X X X X   .X X X X X   o  X X X X X X X   .X X X X X   o",
"  .X X X X X X .  . X X X X X  o  .X X X X X X .  . X X X X X  o",
". . X X X X X X.  .X X X X X   o. . X X X X X X.  .X X X X X   o",
". .X X X X X X .  . X X X X X  o. .X X X X X X .  . X X X X X  o",
"  . X X X X X X.  .X X X X X   o  . X X X X X X.  .X X X X X   o",
"  .X X X X X X .  X X X X X X     .X X X X X X .  X X X X X X   ",
". X X X X X X X    X X X X X    . X X X X X X X    X X X X X    ",
".  X X X X X X X  X X X X X X   .  X X X X X X X  X X X X X X   ",
"  X X X X X X X    X X X X X X    X X X X X X X    X X X X X X  ",
"   X X.....X X X  X X ..... X      X X.....X X X  X X ..... X   ",
"                                                                ",
"                                                                ",
"  X X X.....X X      X ..... X X  X X X.....X X      X ..... X X",
"   X X X X X X X    X X X X X X    X X X X X X X    X X X X X X ",
". X X X X X X X      X X X X X X. X X X X X X X      X X X X X X",
".  X X X X X X X      X X X X X .  X X X X X X X      X X X X X ",
"  . X X X X X X.     X X X X X X  . X X X X X X.     X X X X X X",
"  .X X X X X X .  o   X X X X X.  .X X X X X X .  o   X X X X X.",
". . X X X X X X.  o  X X X X X .. . X X X X X X.  o  X X X X X .",
". .X X X X X X .  o   X X X X X.. .X X X X X X .  o   X X X X X.",
"  . X X X X X X.  o  X X X X X .  . X X X X X X.  o  X X X X X .",
"   X X X X X X X  o   X X X X X.   X X X X X X X  o   X X X X X.",
". X X X X X X X      X X X X X X. X X X X X X X      X X X X X X",
".  X           X      X X X X X .  X           X      X X X X X ",
"                     X X X X X X                     X X X X X X",
"       ooooo        X X.....X X        ooooo        X X.....X X "
};
