/* XPM */
static char *result[] = {
/* columns rows colors chars-per-pixel */
"64 64 5 1 ",
"  c black",
". c #736D6B",
"X c #C6C7C6",
"o c white",
"O c red",
/* pixels */
"                                                                ",
"       ..  ..                                                   ",
"   XXXXXXXXXXX                                    XXXXXXXXXXX   ",
"  X XXXXXXXXXX                                    XXXXXXXXXX X  ",
"  XX XXXXXXXXX                                    XXXXXXXXX XX  ",
"  XXX XXXXXXXX    oooooooooooooooooooooooooooo    XXXXXXXX XXX  ",
"  XXXX XXXXXXX    oooooooooooooooooooooooooooo    XXXXXXX XXXX  ",
"  XXXXX XXXXXX    oooooooooooooooooooooooooooo    XXXXXX XXXXX. ",
"  XXXXXX XXXXX    oooooooooooooooooooooooooooo    XXXXX XXXXXX. ",
"  XXXXXXX XXXX    oooooOOOOOOOOO         ooooo    XXXX XXXXXXX  ",
"  XXXXXXXX XXX    oooooOOOOOOOOO         ooooo    XXX XXXXXXXX  ",
"  XXXXXXXXX XX    oooooOOOOOOOOO         ooooo    XX XXXXXXXXX. ",
"  XXXXXXXXXX X    oooooOOOOOOOOO         ooooo    X XXXXXXXXXX. ",
"  XXXXXXXXXXX.    oooooOOOOOOOOO         ooooo     XXXXXXXXXXX  ",
"                  oooooOOOOOOOOO         ooooo                  ",
"                  oooooOOOOOOOOO         ooooo                  ",
"                  oooooOOOOOOOOO         ooooo                  ",
"                  oooooOOOOOOOOO         ooooo                  ",
"     ooooooooooooooooooOOOOOOOOO         oooooooooooooooooo     ",
"     ooooooooooooooooooOOOOOOOOO         oooooooooooooooooo     ",
"     ooooooooooooooooooOOOOOOOOO         oooooooooooooooooo     ",
"     ooooooooooooooooooOOOOOOOOO         oooooooooooooooooo     ",
"     ooooooooooooooooooOOOOOOOOO         oooooooooooooooooo     ",
"     ooooOOOOOOOOOOOOOOOOOOOOOOO                       oooo     ",
"     ooooOOOOOOOOOOOOOOOOOOOOOOO                       oooo     ",
"     ooooOOOOOOOOOOOOOOOOOOOOOOO                       oooo     ",
"     ooooOOOOOOOOOOOOOOOOOOOOOOO                       oooo     ",
"     ooooOOOOOOOOOOOOOOOOOOOOOOO                       oooo     ",
"     ooooOOOOOOOOOOOOOOOOOOOOOOO                       oooo     ",
"     ooooOOOOOOOOOOOOOOOOOOOOOOO                       oooo     ",
"     ooooOOOOOOOOOOOOOOOOOOOOOOO                       oooo     ",
"     ooooOOOOOOOOOOOOOOOOOOOOOOO                       oooo     ",
"     ooooOOOOOOOOOOOOOOOOOOOOOOOOOOOOOOOOOOOOOOOOOOOOOOoooo     ",
"     ooooOOOOOOOOOOOOOOOOOOOOOOOOOOOOOOOOOOOOOOOOOOOOOOoooo     ",
"     ooooOOOOOOOOOOOOOOOOOOOOOOOOOOOOOOOOOOOOOOOOOOOOOOoooo     ",
"     ooooOOOOOOOOOOOOOOOOOOOOOOOOOOOOOOOOOOOOOOOOOOOOOOoooo     ",
"     ooooOOOOOOOOOOOOOOOOOOOOOOOOOOOOOOOOOOOOOOOOOOOOOOoooo     ",
"     ooooOOOOOOOOOOOOOOOOOOOOOOOOOOOOOOOOOOOOOOOOOOOOOOoooo     ",
"     ooooOOOOOOOOOOOOOOOOOOOOOOOOOOOOOOOOOOOOOOOOOOOOOOoooo     ",
"     ooooOOOOOOOOOOOOOOOOOOOOOOOOOOOOOOOOOOOOOOOOOOOOOOoooo     ",
"     ooooOOOOOOOOOOOOOOOOOOOOOOOOOOOOOOOOOOOOOOOOOOOOOOoooo     ",
"     ooooooooooooooooooOOOOOOOOOOOOOOOOOOoooooooooooooooooo     ",
"     ooooooooooooooooooOOOOOOOOOOOOOOOOOOoooooooooooooooooo     ",
"     ooooooooooooooooooOOOOOOOOOOOOOOOOOOoooooooooooooooooo     ",
"     ooooooooooooooooooOOOOOOOOOOOOOOOOOOoooooooooooooooooo     ",
"     ooooooooooooooooooOOOOOOOOOOOOOOOOOOoooooooooooooooooo     ",
"                  oooooOOOOOOOOOOOOOOOOOOooooo                  ",
"                  oooooOOOOOOOOOOOOOOOOOOooooo                  ",
"                  oooooOOOOOOOOOOOOOOOOOOooooo                  ",
"                  oooooOOOOOOOOOOOOOOOOOOooooo                  ",
"  XXXXXXXXXXX     oooooOOOOOOOOOOOOOOOOOOooooo                  ",
" .XXXXXXXXXX X    oooooOOOOOOOOOOOOOOOOOOooooo                  ",
" .XXXXXXXXX XX    oooooOOOOOOOOOOOOOOOOOOooooo      X X X X X X ",
"  XXXXXXXX XXX    oooooOOOOOOOOOOOOOOOOOOooooo     X X X X X X  ",
"  XXXXXXX XXXX    oooooOOOOOOOOOOOOOOOOOOooooo      X X X X X . ",
" .XXXXXX XXXXX    oooooooooooooooooooooooooooo     X X X X X X. ",
" .XXXXX XXXXXX    oooooooooooooooooooooooooooo      X X X X X . ",
"  XXXX XXXXXXX    oooooooooooooooooooooooooooo     X X X X X X. ",
"  XXX XXXXXXXX    oooooooooooooooooooooooooooo      X X X X X . ",
"  XX XXXXXXXXX                                     X X X X X X  ",
"  X XXXXXXXXXX                                      X X X X X X ",
"   XXXXXXXXXXX                                     X X X X X X  ",
"                                                    X.....X X X ",
"                                                                "
};
