/* XPM */
static char *result[] = {
/* columns rows colors chars-per-pixel */
"64 64 10 1 ",
"  c black",
". c #736D6B",
"X c white",
"o c #C6C7C6",
"O c #101060",
"+ c #3058E0",
"@ c #202080",
"# c #78B0F8",
"$ c #3838B0",
"% c #D8D8F8",
/* pixels */
"    ..  ..  ..      ..  ..  ..    ..  ..  ..      ..  ..  ..    ",
"                                                                ",
"      XXXXX        o o.....o o     o ..... o o   o o.....o o    ",
"                  o o o o o o     o o o o o o   o o o o o o     ",
". o           o    o o o o o       o o o o o o   o o o o o     .",
".  o o o o o o o  o o o o o o       o o o o o   o o o o o o    .",
"  o o o o o o o   .o o o o o   X   o o o o o o  .o o o o o   X  ",
"  .o o o o o o .  . o o o o o  XX   o o o o o.  . o o o o o  X  ",
". . o o o o o o.  .o o o o o   XX  o o o o o .  .o o o o o   X .",
". .o o o o o o .  . o o o o o  XX   o o o o o.  . o o o o o  X .",
"  . o o o o o o.  .o o o o o   XX  o o OOOOOOOOOOO o o + o   X  ",
"  .o o o o o o .  o o o o o o   X   o O@@@@@@@@@@@@@+++#+ o     ",
". o o o o o o o    o o o o o       oOO@$++++++++++++####+o     .",
".  o o o o o o o  o o o o o o      O$$++%%%%%%%%%%###+++o o    .",
"  o o o o o o o    o o o o o o    O$++%%%%%%%%%%%%#++$@O o o    ",
"   o o.....o o o  o o ..... o     O$++%%%%%%%%%%%%#++$@O. o     ",
"                                 O$+%%%%%%%++++++++$@@O         ",
"                                O@+%%%%%+%+$$$@@@@@OOO          ",
"  o o o.....o o      o ..... oOO@$+%%%%+%+$@@OOOOOO o.....o o   ",
"   o o o o o o o    o o o o o@@$$+%%%%+%+$@OO    o o o o o o o  ",
". o o o o o o o      o o o+++++++%%%++%+$@O o   o o o o o o o  .",
".  o o o o o o o      o o+######%%%+++%+$O o o   o o o o o o o .",
"  . o o o o o o.     o o+#+++++%%+++++%+@Oo o   . o o o o o o.  ",
"  .o o o o o o .  X   o+#+$$$++%%+$$++%+@O o .  .o o o o o o .  ",
". . o o o o o o.  X  o+#+@@@$++%+$@@$$++@Oo o.  . o o o o o o. .",
".O@@@@ o o oO@@OOOX   o+o@@@$+%%%+@@@@+%+O o .  .o o o o o o . .",
" O@@@@o o o O@@OOOX  o + @@@$+%%%+@@@@+%+Oo o.  . o o o o o o.  ",
"O@++++++++ ++++$$$@OO @@@@$$+%+#+$@OOO@+@O o .   o o o o o o o  ",
"O+########+##%%+++++++++++++%+##+@O o o o o o   o o o o o o o +.",
"O@+++++++##%%%%%%%%%%%%%%%%%++#+@O o o o o o o   o        OO@+#+",
" O@$+++++%%+%%%++++%%%%%+++++++@O o o o o o o            O@@+#+ ",
" O@+++#+$++$+++$$$$+++++++++#+@O o o.....o o o       XXOO@++#+@ ",
" O+###+$@@@@@@@@@@@@@@@@$+##+@O     ..  ..  ..      ..O@@$++%+O ",
"  O+++@@OOOO OOOOOOOOOOO@@++@O                     OOO@$++%%+@O ",
"   OOOOOXXX        o o..OOOOOo        XXXXX       O@@$++%%++$O  ",
"                  o o o o o o                 OOOO@$++%%++@@O   ",
". o           o    o o o o o   O@@@@@@@@@@@@@@@@@$$+%%++@o o    ",
".  o o o o o o o  o o o o o o  O@@@@@@@@@@@@@@@@@$$+%%++@ o o   ",
"  o o o o o o o   .o o o o o  O@+++++++++$+++++++++%++$@Oo o   X",
"  .o o o o o o .  . o o o o oO@+#########+%%%%%%%%%+$@@Oo o o  X",
". . o o o o o o.  .o o o o oO@+#++++++++%#%%%%%%%%+$OOOo o o   X",
". .o o o o o o .  . o o oOOO@+#+++++%%%%%%%%%%++++$Oo o o o o  X",
"  . o o o o o OOOOOoOOOOO@@@$+++++%%%%%%%+++#+$@@OOo o o o o   X",
"  .o o o o o O@@@@@@@@@@@$+++++++%%%%%++++##+$@OO o o o o o o   ",
". o o o o o O@+++++++++$++%%%%%%%%%++++++#++$@O    o o o o o    ",
".  o o o o oO+#########+%%%%%++++++++++##+$@@O o  o o o o o o   ",
"  o o o o o O@+++++++%%%%%%%+$$$$+++++#++$@OO o    o o o o o o  ",
"   o o.....o O@$$$++%%%%++++$@@@$+####+$@OOo o o  o o ..... o   ",
"             O@$$$++%%%%++++$@@@$+####+$@OO                     ",
"              O@@+%%%+++$@@@@@@$$++#++$@O                       ",
"  o o o.....o oOO+%++$$@.OOOOO@++##+@@OO....o o      o ..... o o",
"   o o o o o o OO@+$@@O o o oO+##++@OO o o o o o    o o o o o o ",
". o o o o o o o  OOOOo o o o O@++@@Oo o o o o o      o o o o o o",
".  o o o o o o o      o o o o OOOOOo o o o o o o      o o o o o ",
"  . o o o o o o.     o o o o o o  . o o o o o o.     o o o o o o",
"  .o o o o o o .  X   o o o o o.  .o o o o o o .  X   o o o o o.",
". . o o o o o o.  X  o o o o o .. . o o o o o o.  X  o o o o o .",
". .o o o o o o .  X   o o o o o.. .o o o o o o .  X   o o o o o.",
"  . o o o o o o.  X  o o o o o .  . o o o o o o.  X  o o o o o .",
"   o o o o o o o  X   o o o o o.   o o o o o o o  X   o o o o o.",
". o o o o o o o      o o o o o o. o o o o o o o      o o o o o o",
".  o           o      o o o o o .  o           o      o o o o o ",
"                     o o o o o o                     o o o o o o",
"       XXXXX        o o.....o o        XXXXX        o o.....o o "
};
