/* XPM */
static char *result[] = {
/* columns rows colors chars-per-pixel */
"64 64 5 1 ",
"  c black",
". c #736D6B",
"X c white",
"o c #C6C7C6",
"O c #01C700",
/* pixels */
"    ..  ..  ..      ..  ..  ..    ..  ..  ..      ..  ..  ..    ",
"                                                                ",
"      XXXXX        ooooooooooooooooooooooooooooo o o.....o o    ",
"                  o ooooooooooooooooooooooooooooo o o o o o     ",
". o           o    ooooooooooooooooooooooooooooo o o o o o     .",
".  o o o o o o o  o ooooooooooooooooooooooooooooo o o o o o    .",
"  o ooooo o ooooXXXXXXXXXXXXXXXXXXXXXXXXXXXXXXXXoooo o o o   X  ",
"  .ooooo o oooooXXXXXXXXXXXXXXXXXXXXXXXXXXXXXXXXooooo o o o  X  ",
". . ooooo o ooooXXXXXXXXXXXXXXXXXXXXXXXXXXXXXXXXoooo o o o   X .",
". .ooooo o oooooXXXXXXXXXXXXXXXXXXXXXXXXXXXXXXXXooooo o o o  X .",
"  . o o o o o o.ooooXXXXXXXXXXXXXXXXXXXXXXXXXXXXXXXXoooo o   X  ",
"  .o o o o o o .ooooXXXXXXXXXXXXXXXXXXXXXXXXXXXXXXXXooooo o     ",
". o o o o o o o ooooXXXXXXXXXXXXXXXXXXXXXXXXXXXXXXXXoooo o     .",
".  o o o o o o oooooXXXXXXXXXXXXXXXXXXXXXXXXXXXXXXXXooooo o    .",
"  o o o o o o o    oooooXXXXXXXXXXXXXXXXXXXXXXXXXXXXoooo o o    ",
"   o o.....o o o  o ooooXXXXXXXXXXXXXXXXXXXXXXXXXXXXoooo. o     ",
"                    ooooXXXXXXXXXXXXXXXXXXXXXXXXXXXXoooo        ",
"                    ooooXXXXXXXXXXXXXXXXXXXXXXXXXXXXoooo        ",
"  o o o.....o o      o .ooooXXXXXXXXXXXXXXXXXXXXooooo.....o o   ",
"   o o o o o o o    o o ooooXXXXXXXXXXXXXXXXXXXXoooo o o o o o  ",
". o o o o o o o      o oooooXXXXXXXXXXXXXXXXXXXXooooo o o o o  .",
".  o o o o o o o      o ooooXXXXXXXXXXXXXXXXXXXXoooo o o o o o .",
"  . o o o o o o.     o oooooXXXXXXXXXXXXXXXXoooo. o o o o o o.  ",
"  .o o o o o o .  X   o ooooXXXXXXXXXXXXXXXXoooo.o o o o o o .  ",
". . o o o o o o.  X  o oooooXXXXXXXXXXXXXXXXoooo. o o o o o o. .",
". .o o o o o o .  X   o ooooXXXXXXXXXXXXXXXXoooo.o o o o o o . .",
"  . o o o o o o.  X  o oooooXXXXXXXXXXXXooooo.  . o o o o o o.  ",
"   o o o o o o o  X   o ooooXXXXXXXXXXXXoooo .   o o o o o o o  ",
". o o o o o o o      o oooooXXXXXXXXXXXXooooo   o o o o o o o  .",
".  o           o      o ooooXXXXXXXXXXXXoooo o   o           o .",
"                    ooooXXXXXXXXXXXXooooo o o                   ",
"       XXXXX        ooooXXXXXXXXXXXXoooo.o o o       XXXXX      ",
"    ..  ..  ..      ooooXXXXXXXXXXXXoooo..  ..      ..  ..  ..  ",
"                    ooooXXXXXXXXXXXXoooo                        ",
"      XXXXX     ooooXXXXXXXXXXXXoooo  XXXXX        o o.....o o  ",
"                ooooXXXXXXXXXXXXoooo              o o o o o o   ",
". o           o ooooXXXXXXXXXXXXoooo          o    o o o o o    ",
".  o o o o o o oooooXXXXXXXXXXXXoooo o o o o o o  o o o o o o   ",
"  o o o o o     XXXXXXXXXXXXoooo  o o o o o o o   .o o o o o   X",
"  .o o o o o    XXXXXXXXXXXXoooo  .o o o o o o .  . o o o o o  X",
". . o o o o     XXXXXXXXXXXXoooo. . o o o o o o.  .o o o o o   X",
". .o o o o o    XXXXXXXXXXXXoooo. .o o o o o o .  . o o o o o  X",
"  . o o                        X  . o o o o o o.  .o o o o o   X",
"  .o o o                    o     .o o o o o o .  o o o o o o   ",
". o o o                         . o o o o o o o    o o o o o    ",
".  o o o                    o   .  o o o o o o o  o o o o o o   ",
"  o     OOOO             o o o    o o o o o o o    o o o o o o  ",
"   o    OOOO            ... o      o o.....o o o  o o ..... o   ",
"        OOOO                                                    ",
"        OOOO                                                    ",
"    OOOO    OOOO     o ..... o o  o o o.....o o      o ..... o o",
"    OOOO    OOOO    o o o o o o    o o o o o o o    o o o o o o ",
"    OOOO    OOOO     o o o o o o. o o o o o o o      o o o o o o",
"    OOOO    OOOO      o o o o o .  o o o o o o o      o o o o o ",
"    OOOOOOOO         o o o o o o  . o o o o o o.     o o o o o o",
"    OOOOOOOO      X   o o o o o.  .o o o o o o .  X   o o o o o.",
"    OOOOOOOO      X  o o o o o .. . o o o o o o.  X  o o o o o .",
"    OOOOOOOO      X   o o o o o.. .o o o o o o .  X   o o o o o.",
"            o o.  X  o o o o o .  . o o o o o o.  X  o o o o o .",
"             o o  X   o o o o o.   o o o o o o o  X   o o o o o.",
"            o o      o o o o o o. o o o o o o o      o o o o o o",
"               o      o o o o o .  o           o      o o o o o ",
"                     o o o o o o                     o o o o o o",
"       XXXXX        o o.....o o        XXXXX        o o.....o o "
};
