/* XPM */
static char *result[] = {
/* columns rows colors chars-per-pixel */
"64 64 5 1 ",
"  c black",
". c #736D6B",
"X c white",
"o c #C6C7C6",
"O c #01C700",
/* pixels */
"    ..  ..  ..      ..  ..  ..    ..  ..  ..      ..  ..  ..    ",
"                                                                ",
"      XXXXX        o o.....o o     o ..... o o   o o.....o o    ",
"                  o o o o o o     o o o o o o   o o o o o o     ",
". o           o    o o o o o       o o o o o ooooooooo o o     .",
".  o o o o o o o  o o o o o o       o o o o o ooooooooo o o    .",
"  o o o o o o o   .o o o o o   X   o o o o o ooooooooo o o   X  ",
"  .o o o o o o .  . o o o o o  XX   o o o o o.ooooooooo o o  X  ",
". . o o o o o o.  .o o o o o   XX  o o o oooooXXXXXXXXoooo   X .",
". .o o o o o o .  . o o o o o  XX   o o o ooooXXXXXXXXooooo  X .",
"  . o o o o o o.  .o o o o o   XX  o o o oooooXXXXXXXXoooo   X  ",
"  .o o o o o o .  o o o o o o   X   o o o ooooXXXXXXXXooooo     ",
". o o o o o o o    o o o o o       o oooooXXXXXXXXXXXXXXXXoooo .",
".  o o o o o o o  o o o o o o       o ooooXXXXXXXXXXXXXXXXoooo .",
"  o o o o o o o    o o o o o o     o oooooXXXXXXXXXXXXXXXXoooo  ",
"   o o.....o o o  o o ..... o     o o.ooooXXXXXXXXXXXXXXXXoooo  ",
"                                  ooooXXXXXXXXXXXXXXXXXXXXoooo  ",
"                                  ooooXXXXXXXXXXXXXXXXXXXXoooo  ",
"  o o o.....o o      o ..... o o  ooooXXXXXXXXXXXXXXXXXXXXoooo  ",
"   o o o o o o o    o o o o o o   ooooXXXXXXXXXXXXXXXXXXXXoooo  ",
". o o o o o o o      o o o o oooooXXXXXXXXXXXXXXXXXXXXXXXXoooo .",
".  o o o o o o o      o o o o ooooXXXXXXXXXXXXXXXXXXXXXXXXoooo .",
"  . o o o o o o.     o o o o oooooXXXXXXXXXXXXXXXXXXXXXXXXoooo  ",
"  .o o o o o o .  X   o o o o ooooXXXXXXXXXXXXXXXXXXXXXXXXoooo  ",
". . o o o o o o.  X  o o oooooXXXXXXXXXXXXXXXXXXXXXXXXXXXXoooo .",
". .o o o o o o .  X   o o ooooXXXXXXXXXXXXXXXXXXXXXXXXXXXXoooo .",
"  . o o o o o o.  X  o o oooooXXXXXXXXXXXXXXXXXXXXXXXXXXXXoooo  ",
"   o o o o o o o  X   o o ooooXXXXXXXXXXXXXXXXXXXXXXXXXXXXoooo  ",
". o o o o o o o      oooooXXXXXXXXXXXXXXXXXXXXXXXXXXXXXXXXoooo .",
".  o           o      ooooXXXXXXXXXXXXXXXXXXXXXXXXXXXXXXXXoooo .",
"                     oooooXXXXXXXXXXXXXXXXXXXXXXXXXXXXXXXXoooo  ",
"       XXXXX        o ooooXXXXXXXXXXXXXXXXXXXXXXXXXXXXXXXXoooo  ",
"    ..  ..  ..        XXXXXXXXXXXXooooooooooooXXXXXXXXXXXXoooo  ",
"                      XXXXXXXXXXXXooooooooooooXXXXXXXXXXXXoooo  ",
"      XXXXX           XXXXXXXXXXXXooooooooooooXXXXXXXXXXXXoooo  ",
"                      XXXXXXXXXXXXooooooooooooXXXXXXXXXXXXoooo  ",
". o                   XXXXXXXXooooo           ooooXXXXXXXXoooo  ",
".  o o o o o o        XXXXXXXXoooo o o o o o oooooXXXXXXXXoooo  ",
"  o o o o o o         XXXXXXXXooooo o o o o o ooooXXXXXXXXoooo X",
"  .o o o o o o        XXXXXXXXoooo.o o o o o oooooXXXXXXXXoooo X",
". . o o o             XXXXoooo X. . o o o o o o.  ooooXXXX o   X",
". .o o o o            XXXXoooo X. .o o o o o o .  ooooXXXXo o  X",
"  . o o o             XXXXoooo X  . o o o o o o.  ooooXXXX o   X",
"  .o o o o            XXXXoooo    .o o o o o o .  ooooXXXXo o   ",
". o o     OOOO             o    . o o o o o o o    o ooooo o    ",
".  o o    OOOO            o o   .  o o o o o o o  o o ooooo o   ",
"  o o     OOOO             o o    o o o o o o o    o ooooo o o  ",
"   o o    OOOO            . o      o o.....o o o  o o oooo. o   ",
"      OOOO    OOOO                                              ",
"      OOOO    OOOO                                              ",
"      OOOO    OOOO     ..... o o  o o o.....o o      o ..... o o",
"      OOOO    OOOO    o o o o o    o o o o o o o    o o o o o o ",
".     OOOOOOOO       o o o o o o. o o o o o o o      ooooo o o o",
".     OOOOOOOO        o o o o o .  o o o o o o o      ooooo o o ",
"      OOOOOOOO       o o o o o o  . o o o o o o.     ooooo o o o",
"      OOOOOOOO    X   o o o o o.  .o o o o o o .  X   ooooo o o.",
".             o.  X  o o o o o .. . o o o o o o.  X  o o o o o .",
".              .  X   o o o o o.. .o o o o o o .  X   o o o o o.",
"              o.  X  o o o o o .  . o o o o o o.  X  o o o o o .",
"               o  X   o o o o o.   o o o o o o o  X   o o o o o.",
". o o o o o o o      o o o o o o. o o o o o o o      o o o o o o",
".  o           o      o o o o o .  o           o      o o o o o ",
"                     o o o o o o                     o o o o o o",
"       XXXXX        o o.....o o        XXXXX        o o.....o o "
};
