/* XPM */
static char *result[] = {
/* columns rows colors chars-per-pixel */
"64 64 5 1 ",
"  c black",
". c #736D6B",
"X c white",
"o c #C6C7C6",
"O c #01C700",
/* pixels */
"    ..  ..  ..      ..  ..  ..    ..  ..  ..      ..  ..  ..    ",
"                                                                ",
"      XXXXX     oooooooooooooooooooooooooooo o   o o.....o o    ",
"                ooooooooooooooooooooooooooooo   o o o o o o     ",
". o           o oooooooooooooooooooooooooooo o   o o o o o     .",
".  o o o o o o oooooooooooooooooooooooooooooo   o o o o o o    .",
"  o o o o o ooooXXXXXXXXXXXXXXXXXXXXXXXXXXXXXXXXoooo o ooooo X  ",
"  .o o o o oooooXXXXXXXXXXXXXXXXXXXXXXXXXXXXXXXXooooo o oooo X  ",
". . o o o o ooooXXXXXXXXXXXXXXXXXXXXXXXXXXXXXXXXoooo o ooooo X .",
". .o o o o oooooXXXXXXXXXXXXXXXXXXXXXXXXXXXXXXXXooooo o oooo X .",
"  . o o ooooXXXXXXXXXXXXXXXXXXXXXXXXXXXXXXXXoooo.o o o o o   X  ",
"  .o o oooooXXXXXXXXXXXXXXXXXXXXXXXXXXXXXXXXooooo o o o o o     ",
". o o o ooooXXXXXXXXXXXXXXXXXXXXXXXXXXXXXXXXoooo o o o o o     .",
".  o o oooooXXXXXXXXXXXXXXXXXXXXXXXXXXXXXXXXooooo o o o o o    .",
"  o o o ooooXXXXXXXXXXXXXXXXXXXXXXXXXXXXoooo o   o o o o o o    ",
"   o o..ooooXXXXXXXXXXXXXXXXXXXXXXXXXXXXooooo   o o ..... o     ",
"        ooooXXXXXXXXXXXXXXXXXXXXXXXXXXXXoooo                    ",
"        ooooXXXXXXXXXXXXXXXXXXXXXXXXXXXXoooo                    ",
"  o o o.....ooooXXXXXXXXXXXXXXXXXXXXooooX       o o o.....o o   ",
"   o o o o oooooXXXXXXXXXXXXXXXXXXXXoooo         o o o o o o o  ",
". o o o o o ooooXXXXXXXXXXXXXXXXXXXXoooo    o   o o o o o o o  .",
".  o o o o oooooXXXXXXXXXXXXXXXXXXXXoooo o o o   o o o o o o o .",
"  . o o o o o o.ooooXXXXXXXXXXXXXXXXooooo o o   . o o o o o o.  ",
"  .o o o o o o .ooooXXXXXXXXXXXXXXXXoooo o o .  .o o o o o o .  ",
". . o o o o o o.ooooXXXXXXXXXXXXXXXXooooo o o.  . o o o o o o. .",
". .o o o o o o .ooooXXXXXXXXXXXXXXXXoooo o o .  .o o o o o o . .",
"  . o o o o o o.  X ooooXXXXXXXXXXXXooooo o o.  . o o o o o o.  ",
"   o o o o o o o  X ooooXXXXXXXXXXXXoooo o o .   o o o o o o o  ",
". o o o o o o o     ooooXXXXXXXXXXXXooooo o o   o o o o o o o  .",
".  o           o    ooooXXXXXXXXXXXXoooo o o o   o           o .",
"                     o oooooXXXXXXXXXXXXooooo                   ",
"       XXXXX        o o.ooooXXXXXXXXXXXXoooo o       XXXXX      ",
"    ..  ..  ..      ..  ooooXXXXXXXXXXXXoooo..      ..  ..  ..  ",
"                        ooooXXXXXXXXXXXXoooo                    ",
"      XXXXX        o o.....oooooXXXXXXXXXXXXoooo   o o.....o o  ",
"                  o o o o o ooooXXXXXXXXXXXXoooo  o o o o o o   ",
". o           o    o o o o oooooXXXXXXXXXXXXoooo   o o o o o    ",
".  o o o o o o o  o o o o o ooooXXXXXXXXXXXXoooo  o o o o o o   ",
"  o o o o o o o   .o o o o o   XooooXXXXXXXXXXXX     o o o o   X",
"  .o o o o o o .  . o o o o o  XooooXXXXXXXXXXXX    o o o o o  X",
". . o o o o o o.  .o o o o o   XooooXXXXXXXXXXXX     o o o o   X",
". .o o o o o o .  . o o o o o  XooooXXXXXXXXXXXX    o o o o o  X",
"  . o o o o o o.  .o o o o o   X  .                      o o   X",
"  .o o o o o o .  o o o o o o     .o                    o o o   ",
". o o o o o o o    o o o o o    . o                      o o    ",
".  o o o o o o o  o o o o o o   .  o                    o o o   ",
"  o o o o o o o    o o o o o o    o o o             OOOO     o  ",
"   o o.....o o o  o o ..... o      o o..            OOOO    o   ",
"                                                    OOOO        ",
"                                                    OOOO        ",
"  o o o.....o o      o ..... o o  o o o.....    OOOO    OOOO    ",
"   o o o o o o o    o o o o o o    o o o o o    OOOO    OOOO    ",
". o o o o o o o      o o o o o o. o o o o o     OOOO    OOOO    ",
".  o o o o o o o      o o o o o .  o o o o o    OOOO    OOOO    ",
"  . o o o o o o.     o o o o o o  . o o o o o o.    OOOOOOOO    ",
"  .o o o o o o .  X   o o o o o.  .o o o o o o .    OOOOOOOO    ",
". . o o o o o o.  X  o o o o o .. . o o o o o o.    OOOOOOOO    ",
". .o o o o o o .  X   o o o o o.. .o o o o o o .    OOOOOOOO    ",
"  . o o o o o o.  X  o o o o o .  . o o o o o o.  X             ",
"   o o o o o o o  X   o o o o o.   o o o o o o o  X             ",
". o o o o o o o      o o o o o o. o o o o o o o                 ",
".  o           o      o o o o o .  o           o                ",
"                     o o o o o o                     o o o o o o",
"       XXXXX        o o.....o o        XXXXX        o o.....o o "
};
