/* XPM */
static char *result[] = {
/* columns rows colors chars-per-pixel */
"64 64 5 1 ",
"  c black",
". c #736D6B",
"X c white",
"o c #C6C7C6",
"O c #01C700",
/* pixels */
"    ..  ..  ..      ..  ..  ..    ..  ..  ..      ..            ",
"                                                                ",
"      XXXXX        o o.....o o     o ..... o o   o o            ",
"                  o o o o o o     o o o o o o   o o             ",
". o     oooo  o    o o o o o       o o o o o o      OOOOOOOO    ",
".  o o ooooo o o  o o o o o o       o o o o o       OOOOOOOO    ",
"  o o o ooooo o   .o o o o o   X   o o o o o o      OOOOOOOO    ",
"  .o o ooooo o .  . o o o o o  XX   o o o o o.      OOOOOOOO    ",
". . o o o o o o.  .o o o o o   XX  o o o o o    OOOO    OOOO    ",
". .o o o o o o .  . o o o o o  XX   o o o o     OOOO    OOOO    ",
"  . o o o o o o.  .o o o o o   XX  o o o o o    OOOO    OOOO    ",
"  .o o o o o o .  o o o o o o   X   o o o o     OOOO    OOOO    ",
". o o o ooooo o    o o o o o       o o o            OOOO       .",
".  o o ooooo o o  o o o o o o       o o             OOOO       .",
"  o o o ooooo o    o o o o o o     o o o            OOOO        ",
"   o o..oooo o o  o o ..... o     o o...            OOOO        ",
"        XXXXoooo                    ooooXXXX                    ",
"        XXXXoooo                    ooooXXXX                    ",
"  o o o.XXXXoooo     o ..... o o    ooooXXXX            ..o o   ",
"   o o oXXXXoooo    o o o o o o     ooooXXXX             o o o  ",
". o ooooXXXXXXXXoooo o o o o o oooooXXXXXXXX        o o o o o  .",
".  oooooXXXXXXXXoooo  o o o o o ooooXXXXXXXX         o o o o o .",
"  . ooooXXXXXXXXoooo o o o o o oooooXXXXXXXX        o o o o o.  ",
"  .oooooXXXXXXXXoooo  o o o o o.ooooXXXXXXXX         o o o o .  ",
". . ooooXXXXXXXXXXXXooooooooooooXXXXXXXXXXXX    . o o o o o o. .",
". .oooooXXXXXXXXXXXXooooooooooooXXXXXXXXXXXX    .o o o o o o . .",
"  . ooooXXXXXXXXXXXXooooooooooooXXXXXXXXXXXX    . o o o o o o.  ",
"   oooooXXXXXXXXXXXXooooooooooooXXXXXXXXXXXX     o o o o o o o  ",
". o ooooXXXXXXXXXXXXXXXXXXXXXXXXXXXXXXXXooooo   o o o o o o o  .",
".  oooooXXXXXXXXXXXXXXXXXXXXXXXXXXXXXXXXoooo o   o           o .",
"    ooooXXXXXXXXXXXXXXXXXXXXXXXXXXXXXXXXooooo                   ",
"    ooooXXXXXXXXXXXXXXXXXXXXXXXXXXXXXXXXoooo o       XXXXX      ",
"    ooooXXXXXXXXXXXXXXXXXXXXXXXXXXXXoooo..  ..      ..  ..  ..  ",
"    ooooXXXXXXXXXXXXXXXXXXXXXXXXXXXXoooo                        ",
"    ooooXXXXXXXXXXXXXXXXXXXXXXXXXXXXooooXXX        o o.....o o  ",
"    ooooXXXXXXXXXXXXXXXXXXXXXXXXXXXXoooo          o o o o o o   ",
". o ooooXXXXXXXXXXXXXXXXXXXXXXXXoooo          o    o o o o o    ",
".  oooooXXXXXXXXXXXXXXXXXXXXXXXXoooo o o o o o o  o o o o o o   ",
"  o ooooXXXXXXXXXXXXXXXXXXXXXXXXooooo o o o o o   .o o o o o   X",
"  .oooooXXXXXXXXXXXXXXXXXXXXXXXXoooo o o o o o .  . o o o o o  X",
". . ooooXXXXXXXXXXXXXXXXXXXXoooo. . o o o o o o.  .o o o o o   X",
". .oooooXXXXXXXXXXXXXXXXXXXXoooo. .o o o o o o .  . o o o o o  X",
"  . ooooXXXXXXXXXXXXXXXXXXXXoooo  . o o o o o o.  .o o o o o   X",
"  .oooooXXXXXXXXXXXXXXXXXXXXoooo  .o o o o o o .  o o o o o o   ",
". o ooooXXXXXXXXXXXXXXXXoooo    . o o o o o o o    o o o o o    ",
".  oooooXXXXXXXXXXXXXXXXooooo   .  o o o o o o o  o o o o o o   ",
"  o ooooXXXXXXXXXXXXXXXXoooo o    o o o o o o o    o o o o o o  ",
"   oooooXXXXXXXXXXXXXXXXooooo      o o.....o o o  o o ..... o   ",
"        ooooXXXXXXXXoooo                                        ",
"        ooooXXXXXXXXoooo                                        ",
"  o o o.ooooXXXXXXXXoooo.... o o  o o o.....o o      o ..... o o",
"   o o oooooXXXXXXXXooooo o o o    o o o o o o o    o o o o o o ",
". o o o o o oooooooo o o o o o o. o o o o o o o      o o o o o o",
".  o o o o ooooooooo  o o o o o .  o o o o o o o      o o o o o ",
"  . o o o o oooooooo o o o o o o  . o o o o o o.     o o o o o o",
"  .o o o o ooooooooo  o o o o o.  .o o o o o o .  X   o o o o o.",
". . o o o o o o.  X  o o o o o .. . o o o o o o.  X  o o o o o .",
". .o o o o o o .  X   o o o o o.. .o o o o o o .  X   o o o o o.",
"  . o o o o o o.  X  o o o o o .  . o o o o o o.  X  o o o o o .",
"   o o o o o o o  X   o o o o o.   o o o o o o o  X   o o o o o.",
". o o o o o o o      o o o o o o. o o o o o o o      o o o o o o",
".  o           o      o o o o o .  o           o      o o o o o ",
"                     o o o o o o                     o o o o o o",
"       XXXXX        o o.....o o        XXXXX        o o.....o o "
};
