/* XPM */
static char *result[] = {
/* columns rows colors chars-per-pixel */
"64 64 7 1 ",
"  c black",
". c #736D6B",
"X c white",
"o c #C6C7C6",
"O c #BD8A5A",
"+ c #9C6131",
"@ c #FFBE8C",
/* pixels */
"    ..  ..  ..                                    ..  ..  ..    ",
"                                                                ",
"      XXXXX                                      o o.....o o    ",
"                                                o o o o o o     ",
". o             OOOOOOOO++++++++++++++++OOOOOOOO     o o o     .",
".  o o o o o    OOOOOOOO++++++++++++++++OOOOOOOO    o o o o    .",
"  o o o o o     OOOOOOOO++++++++++++++++OOOOOOOO     o o o   X  ",
"  .o o o o o    OOOOOOOO++++++++++++++++OOOOOOOO    o o o o  X  ",
". . o o     OOOOOOOO++++++++++++++++++++OOOOOOOOOOOO     o   X .",
". .o o o    OOOOOOOO++++++++++++++++++++OOOOOOOOOOOO    o o  X .",
"  . o o     OOOOOOOO++++++++++++++++++++OOOOOOOOOOOO     o   X  ",
"  .o o o    OOOOOOOO++++++++++++++++++++OOOOOOOOOOOO    o o     ",
". o o o     OOOO++++++++++++++++++++++++++++OOOO++++     o     .",
".  o o o    OOOO++++++++++++++++++++++++++++OOOO++++    o o    .",
"  o o o     OOOO++++++++++++++++++++++++++++OOOO++++     o o    ",
"   o o..    OOOO++++++++++++++++++++++++++++OOOO++++    . o     ",
"            OOOOOOOO++++OOOOOOOOOOOO++++OOOOOOOO++++            ",
"            OOOOOOOO++++OOOOOOOOOOOO++++OOOOOOOO++++            ",
"  o o o.    OOOOOOOO++++OOOOOOOOOOOO++++OOOOOOOO++++    ..o o   ",
"   o o o    OOOOOOOO++++OOOOOOOOOOOO++++OOOOOOOO++++     o o o  ",
". o     OOOO++++OOOOOOOOOOOOOOOOOOOOOOOOOOOO++++++++OOOO    o  .",
".  o    OOOO++++OOOOOOOOOOOOOOOOOOOOOOOOOOOO++++++++OOOO     o .",
"  .     OOOO++++OOOOOOOOOOOOOOOOOOOOOOOOOOOO++++++++OOOO    o.  ",
"  .o    OOOO++++OOOOOOOOOOOOOOOOOOOOOOOOOOOO++++++++OOOO     .  ",
". .     @@@@++++OOOOOOOO++++++++++++OOOOOOOO++++++++@@@@    o. .",
". .o    @@@@++++OOOOOOOO++++++++++++OOOOOOOO++++++++@@@@     . .",
"  .     @@@@++++OOOOOOOO++++++++++++OOOOOOOO++++++++@@@@    o.  ",
"   o    @@@@++++OOOOOOOO++++++++++++OOOOOOOO++++++++@@@@     o  ",
". o o o     ++++++++++++++++++++++++++++++++++++++++    o o o  .",
".  o        ++++++++++++++++++++++++++++++++++++++++         o .",
"            ++++++++++++++++++++++++++++++++++++++++            ",
"       X    ++++++++++++++++++++++++++++++++++++++++    XX      ",
"    ..  ..          ++++++++++++++++++++++++        ..  ..  ..  ",
"                    ++++++++++++++++++++++++                    ",
"      XXXXX         ++++++++++++++++++++++++         o.....o o  ",
"                    ++++++++++++++++++++++++        o o o o o   ",
". o         oooo    oooooooooooooooooooo    oooo     o o o o    ",
".  o o o    oooo    oooooooooooooooooooo    oooo    o o o o o   ",
"  o o o     oooo    oooooooooooooooooooo    oooo     o o o o   X",
"  .o o o    oooo    oooooooooooooooooooo    oooo    o o o o o  X",
". . o o     oooo    oooooooooooooooooooo    oooo@@@@     o o   X",
". .o o o    oooo    oooooooooooooooooooo    oooo@@@@    o o o  X",
"  . o o     oooo    oooooooooooooooooooo    oooo@@@@     o o   X",
"  .o o o    oooo    oooooooooooooooooooo    oooo@@@@    o o o   ",
". o o o         oooo    oooooooooooooooooooo    @@@@     o o    ",
".  o o o        oooo    oooooooooooooooooooo    @@@@    o o o   ",
"  o o o         oooo    oooooooooooooooooooo    @@@@     o o o  ",
"   o o..        oooo    oooooooooooooooooooo    @@@@    ... o   ",
"                oooooooo                    oooo                ",
"                oooooooo                    oooo                ",
"  o o o.....    oooooooo                    oooo     o ..... o o",
"   o o o o o    oooooooo                    oooo    o o o o o o ",
". o o o o o             oooooooooooooooooooo         o o o o o o",
".  o o o o o            oooooooooooooooooooo          o o o o o ",
"  . o o o o             oooooooooooooooooooo         o o o o o o",
"  .o o o o o            oooooooooooooooooooo          o o o o o.",
". . o o         ++++++++                             o o o o o .",
". .o o o        ++++++++                              o o o o o.",
"  . o o         ++++++++                             o o o o o .",
"   o o o        ++++++++                              o o o o o.",
". o o o o o                                          o o o o o o",
".  o                                                  o o o o o ",
"                                                     o o o o o o",
"       XXXXX                                        o o.....o o "
};
