/* XPM */
static char *result[] = {
/* columns rows colors chars-per-pixel */
"64 64 8 1 ",
"  c black",
". c #736D6B",
"X c white",
"o c #C6C7C6",
"O c #BD8A5A",
"+ c #9C6131",
"@ c #FFBE8C",
"# c #848600",
/* pixels */
"    ..  ..  ..                                    ..  ..  ..    ",
"                                                                ",
"      XXXXX                                      o o.....o o    ",
"                                                o o o o o o     ",
". o               OOOOOOOOOOOOOOOOOOOO++++++++     o o o o     .",
".  o o o o o o    OOOOOOOOOOOOOOOOOOOO++++++++    o o o o o    .",
"  o o o o o o     OOOOOOOOOOOOOOOOOOOO++++++++     o o o o   X  ",
"  .o o o o o o    OOOOOOOOOOOOOOOOOOOO++++++++    o o o o o  X  ",
". . o o o     OOOOOOOOOOOOOOOO++++++++++++++++     o o o o   X .",
". .o o o o    OOOOOOOOOOOOOOOO++++++++++++++++    o o o o o  X .",
"  . o o o     OOOOOOOOOOOOOOOO++++++++++++++++     o o o o   X  ",
"  .o o o o    OOOOOOOOOOOOOOOO++++++++++++++++    o o o o o     ",
". o o     ++++OOOOOOOOOOOO++++++++        ++++     o o o o     .",
".  o o    ++++OOOOOOOOOOOO++++++++        ++++    o o o o o    .",
"  o o     ++++OOOOOOOOOOOO++++++++        ++++     o o o o o    ",
"   o o    ++++OOOOOOOOOOOO++++++++        ++++    o ..... o     ",
"          ++++++++OOOOOOOO++++++++XXXXXXXX@@@@@@@@              ",
"          ++++++++OOOOOOOO++++++++XXXXXXXX@@@@@@@@              ",
"  o o     ++++++++OOOOOOOO++++++++XXXXXXXX@@@@@@@@    ....o o   ",
"   o o    ++++++++OOOOOOOO++++++++XXXXXXXX@@@@@@@@     o o o o  ",
". o o     ++++++++++++OOOOOOOO    XXXX    OOOOOOOO    o o o o  .",
".  o o    ++++++++++++OOOOOOOO    XXXX    OOOOOOOO     o o o o .",
"  . o     ++++++++++++OOOOOOOO    XXXX    OOOOOOOO    o o o o.  ",
"  .o o    ++++++++++++OOOOOOOO    XXXX    OOOOOOOO     o o o .  ",
". . o     ++++++++    @@@@    @@@@XXXX    @@@@@@@@    o o o o. .",
". .o o    ++++++++    @@@@    @@@@XXXX    @@@@@@@@     o o o . .",
"  . o     ++++++++    @@@@    @@@@XXXX    @@@@@@@@    o o o o.  ",
"   o o    ++++++++    @@@@    @@@@XXXX    @@@@@@@@     o o o o  ",
". o o o o     ++++    @@@@++++@@@@@@@@@@@@@@@@@@@@    o o o o  .",
".  o          ++++    @@@@++++@@@@@@@@@@@@@@@@@@@@           o .",
"              ++++    @@@@++++@@@@@@@@@@@@@@@@@@@@              ",
"       XXX    ++++    @@@@++++@@@@@@@@@@@@@@@@@@@@    XXXX      ",
"    ..  ..  ..            OOOO@@@@++++++++OOOOOOOO      ..  ..  ",
"                          OOOO@@@@++++++++OOOOOOOO              ",
"      XXXXX               OOOO@@@@++++++++OOOOOOOO    .....o o  ",
"                          OOOO@@@@++++++++OOOOOOOO    o o o o   ",
". o               oooo    OOOO++++++++@@@@@@@@     o o o o o    ",
".  o o o o o o    oooo    OOOO++++++++@@@@@@@@    o o o o o o   ",
"  o o o o o o     oooo    OOOO++++++++@@@@@@@@    .o o o o o   X",
"  .o o o o o o    oooo    OOOO++++++++@@@@@@@@    . o o o o o  X",
". . o o o o o     oooo                        o.  .o o o o o   X",
". .o o o o o o    oooo                         .  . o o o o o  X",
"  . o o o o o     oooo                        o.  .o o o o o   X",
"  .o o o o o o    oooo                         .  o o o o o o   ",
". o o o o         oooo    @@@@@@@@    XXXX    o    o o o o o    ",
".  o o o o        oooo    @@@@@@@@    XXXX     o  o o o o o o   ",
"  o o o o         oooo    @@@@@@@@    XXXX    o    o o o o o o  ",
"   o o....        oooo    @@@@@@@@    XXXX     o  o o ..... o   ",
"              oooo        @@@@@@@@    ####                      ",
"              oooo        @@@@@@@@    ####                      ",
"  o o o...    oooo        @@@@@@@@    ####    o      o ..... o o",
"   o o o o    oooo        @@@@@@@@    ####     o    o o o o o o ",
". o o o o                             oooo    o      o o o o o o",
".  o o o o                            oooo     o      o o o o o ",
"  . o o o                             oooo    o.     o o o o o o",
"  .o o o o                            oooo     .  X   o o o o o.",
". . o o o o o     ++++++++++++++++            o.  X  o o o o o .",
". .o o o o o o    ++++++++++++++++             .  X   o o o o o.",
"  . o o o o o     ++++++++++++++++            o.  X  o o o o o .",
"   o o o o o o    ++++++++++++++++             o  X   o o o o o.",
". o o o o                                            o o o o o o",
".  o                                                  o o o o o ",
"                                                     o o o o o o",
"       XXX                                          o o.....o o "
};
