/* XPM */
static char *result[] = {
/* columns rows colors chars-per-pixel */
"64 64 8 1 ",
"  c black",
". c #736D6B",
"X c white",
"o c #C6C7C6",
"O c #9C6131",
"+ c #BD8A5A",
"@ c #FFBE8C",
"# c #848600",
/* pixels */
"    ..  ..  ..                                    ..  ..  ..    ",
"                                                                ",
"      XXXXX                                      o o.....o o    ",
"                                                o o o o o o     ",
". o           OOOOOOOO++++++++++++++++OOOOOOOO     o o o o     .",
".  o o o o    OOOOOOOO++++++++++++++++OOOOOOOO    o o o o o    .",
"  o o o o     OOOOOOOO++++++++++++++++OOOOOOOO     o o o o   X  ",
"  .o o o o    OOOOOOOO++++++++++++++++OOOOOOOO    o o o o o  X  ",
". . o     OOOOOOOO++++++++OOOOOOOO++++++++OOOOOOOO     o o   X .",
". .o o    OOOOOOOO++++++++OOOOOOOO++++++++OOOOOOOO    o o o  X .",
"  . o     OOOOOOOO++++++++OOOOOOOO++++++++OOOOOOOO     o o   X  ",
"  .o o    OOOOOOOO++++++++OOOOOOOO++++++++OOOOOOOO    o o o     ",
". o o     OOOOOOOO        @@@@@@@@        OOOOOOOO     o o     .",
".  o o    OOOOOOOO        @@@@@@@@        OOOOOOOO    o o o    .",
"  o o     OOOOOOOO        @@@@@@@@        OOOOOOOO     o o o    ",
"   o o    OOOOOOOO        @@@@@@@@        OOOOOOOO    ... o     ",
"          OOOO++++XXXXXXXX@@@@@@@@XXXXXXXX++++OOOO              ",
"          OOOO++++XXXXXXXX@@@@@@@@XXXXXXXX++++OOOO              ",
"  o o     OOOO++++XXXXXXXX@@@@@@@@XXXXXXXX++++OOOO    ....o o   ",
"   o o    OOOO++++XXXXXXXX@@@@@@@@XXXXXXXX++++OOOO     o o o o  ",
".     ++++    @@@@XXXX    ++++++++    XXXX@@@@    ++++    o o  .",
".     ++++    @@@@XXXX    ++++++++    XXXX@@@@    ++++     o o .",
"      ++++    @@@@XXXX    ++++++++    XXXX@@@@    ++++    o o.  ",
"      ++++    @@@@XXXX    ++++++++    XXXX@@@@    ++++     o .  ",
".     @@@@OOOO@@@@XXXX    @@@@@@@@    XXXX@@@@OOOO@@@@    o o. .",
".     @@@@OOOO@@@@XXXX    @@@@@@@@    XXXX@@@@OOOO@@@@     o . .",
"      @@@@OOOO@@@@XXXX    @@@@@@@@    XXXX@@@@OOOO@@@@    o o.  ",
"      @@@@OOOO@@@@XXXX    @@@@@@@@    XXXX@@@@OOOO@@@@     o o  ",
". o o         OOOOOOOO++++++++++++++++OOOOOOOO        o o o o  .",
".  o          OOOOOOOO++++++++++++++++OOOOOOOO               o .",
"              OOOOOOOO++++++++++++++++OOOOOOOO                  ",
"              OOOOOOOO++++++++++++++++OOOOOOOO        XXXX      ",
"      oooo    OOOO++++@@@@        @@@@++++OOOO    oooo      ..  ",
"      oooo    OOOO++++@@@@        @@@@++++OOOO    oooo          ",
"      oooo    OOOO++++@@@@        @@@@++++OOOO    oooo    .o o  ",
"      oooo    OOOO++++@@@@        @@@@++++OOOO    oooo    o o   ",
".     oooooooo    ++++++++++++++++++++++++    oooo    oooo      ",
".     oooooooo    ++++++++++++++++++++++++    oooo    oooo      ",
"      oooooooo    ++++++++++++++++++++++++    oooo    oooo     X",
"      oooooooo    ++++++++++++++++++++++++    oooo    oooo     X",
".     oooooooooooo                        oooooooo    oooo     X",
".     oooooooooooo                        oooooooo    oooo     X",
"      oooooooooooo                        oooooooo    oooo     X",
"      oooooooooooo                        oooooooo    oooo      ",
".     oooo            ####XXXXXXXX####oooooooo    @@@@     o    ",
".     oooo            ####XXXXXXXX####oooooooo    @@@@    o o   ",
"      oooo            ####XXXXXXXX####oooooooo    @@@@     o o  ",
"      oooo            ####XXXXXXXX####oooooooo    @@@@    . o   ",
"          @@@@@@@@        ########                              ",
"          @@@@@@@@        ########                              ",
"  o o     @@@@@@@@        ########                     ..... o o",
"   o o    @@@@@@@@        ########                    o o o o o ",
". o o     @@@@@@@@    oooooooooooooooo               o o o o o o",
".  o o    @@@@@@@@    oooooooooooooooo                o o o o o ",
"  . o     @@@@@@@@    oooooooooooooooo               o o o o o o",
"  .o o    @@@@@@@@    oooooooooooooooo            X   o o o o o.",
". . o o o                             OOOOOOOOOOOO     o o o o .",
". .o o o o                            OOOOOOOOOOOO    o o o o o.",
"  . o o o                             OOOOOOOOOOOO     o o o o .",
"   o o o o                            OOOOOOOOOOOO    o o o o o.",
". o o o o o o                                        o o o o o o",
".  o                                                  o o o o o ",
"                                                     o o o o o o",
"       XXXXX                                        o o.....o o "
};
