/* XPM */
static char *result[] = {
/* columns rows colors chars-per-pixel */
"64 64 8 1 ",
"  c black",
". c #736D6B",
"X c white",
"o c #C6C7C6",
"O c #9C6131",
"+ c #BD8A5A",
"@ c #FFBE8C",
"# c #848600",
/* pixels */
"    ..  ..  ..                                    ..  ..  ..    ",
"                                                                ",
"      XXXXX                                  o   o o.....o o    ",
"                                            o   o o o o o o     ",
". o             OOOOOOOO++++++++++++++++++++     o o o o o     .",
".  o o o o o    OOOOOOOO++++++++++++++++++++    o o o o o o    .",
"  o o o o o     OOOOOOOO++++++++++++++++++++    .o o o o o   X  ",
"  .o o o o o    OOOOOOOO++++++++++++++++++++    . o o o o o  X  ",
". . o o o o     OOOOOOOOOOOOOOOO++++++++++++++++     o o o   X .",
". .o o o o o    OOOOOOOOOOOOOOOO++++++++++++++++    o o o o  X .",
"  . o o o o     OOOOOOOOOOOOOOOO++++++++++++++++     o o o   X  ",
"  .o o o o o    OOOOOOOOOOOOOOOO++++++++++++++++    o o o o     ",
". o o o o o     OOOO        OOOOOOOO++++++++++++OOOO     o     .",
".  o o o o o    OOOO        OOOOOOOO++++++++++++OOOO    o o    .",
"  o o o o o     OOOO        OOOOOOOO++++++++++++OOOO     o o    ",
"   o o.....o    OOOO        OOOOOOOO++++++++++++OOOO    . o     ",
"            @@@@@@@@XXXXXXXXOOOOOOOO++++++++OOOOOOOO            ",
"            @@@@@@@@XXXXXXXXOOOOOOOO++++++++OOOOOOOO            ",
"  o o o.    @@@@@@@@XXXXXXXXOOOOOOOO++++++++OOOOOOOO    ..o o   ",
"   o o o    @@@@@@@@XXXXXXXXOOOOOOOO++++++++OOOOOOOO     o o o  ",
". o o o     ++++++++    XXXX    ++++++++OOOOOOOOOOOO    o o o  .",
".  o o o    ++++++++    XXXX    ++++++++OOOOOOOOOOOO     o o o .",
"  . o o     ++++++++    XXXX    ++++++++OOOOOOOOOOOO    o o o.  ",
"  .o o o    ++++++++    XXXX    ++++++++OOOOOOOOOOOO     o o .  ",
". . o o     @@@@@@@@    XXXX@@@@    @@@@    OOOOOOOO    o o o. .",
". .o o o    @@@@@@@@    XXXX@@@@    @@@@    OOOOOOOO     o o . .",
"  . o o     @@@@@@@@    XXXX@@@@    @@@@    OOOOOOOO    o o o.  ",
"   o o o    @@@@@@@@    XXXX@@@@    @@@@    OOOOOOOO     o o o  ",
". o o o     @@@@@@@@@@@@@@@@@@@@OOOO@@@@    OOOO    o o o o o  .",
".  o        @@@@@@@@@@@@@@@@@@@@OOOO@@@@    OOOO             o .",
"            @@@@@@@@@@@@@@@@@@@@OOOO@@@@    OOOO                ",
"       X    @@@@@@@@@@@@@@@@@@@@OOOO@@@@    OOOO     XXXXX      ",
"    ..      ++++++++OOOOOOOO@@@@++++                ..  ..  ..  ",
"            ++++++++OOOOOOOO@@@@++++                            ",
"      XX    ++++++++OOOOOOOO@@@@++++               o o.....o o  ",
"            ++++++++OOOOOOOO@@@@++++              o o o o o o   ",
". o             @@@@@@@@OOOOOOOO++++    oooo       o o o o o    ",
".  o o o o o    @@@@@@@@OOOOOOOO++++    oooo      o o o o o o   ",
"  o o o o o     @@@@@@@@OOOOOOOO++++    oooo      .o o o o o   X",
"  .o o o o o    @@@@@@@@OOOOOOOO++++    oooo      . o o o o o  X",
". . o o o o o o.                        oooo      .o o o o o   X",
". .o o o o o o .                        oooo      . o o o o o  X",
"  . o o o o o o.                        oooo      .o o o o o   X",
"  .o o o o o o .                        oooo      o o o o o o   ",
". o o o o o o o     XXXX    @@@@@@@@    oooo         o o o o    ",
".  o o o o o o o    XXXX    @@@@@@@@    oooo        o o o o o   ",
"  o o o o o o o     XXXX    @@@@@@@@    oooo         o o o o o  ",
"   o o.....o o o    XXXX    @@@@@@@@    oooo        o ..... o   ",
"                    ####    @@@@@@@@        oooo                ",
"                    ####    @@@@@@@@        oooo                ",
"  o o o.....o o     ####    @@@@@@@@        oooo     o ..... o o",
"   o o o o o o o    ####    @@@@@@@@        oooo    o o o o o o ",
". o o o o o o o     oooo                             o o o o o o",
".  o o o o o o o    oooo                              o o o o o ",
"  . o o o o o o.    oooo                             o o o o o o",
"  .o o o o o o .    oooo                              o o o o o.",
". . o o o o o o.            OOOOOOOOOOOOOOOO      X  o o o o o .",
". .o o o o o o .            OOOOOOOOOOOOOOOO      X   o o o o o.",
"  . o o o o o o.            OOOOOOOOOOOOOOOO      X  o o o o o .",
"   o o o o o o o            OOOOOOOOOOOOOOOO      X   o o o o o.",
". o o o o o                                          o o o o o o",
".  o                                                  o o o o o ",
"                                                     o o o o o o",
"       XXXXX                                        o o.....o o "
};
