/* XPM */
static char *result[] = {
/* columns rows colors chars-per-pixel */
"64 64 9 1 ",
"  c black",
". c #01C700",
"X c #736D6B",
"o c #C6C7C6",
"O c #FFBE8C",
"+ c white",
"@ c #9C6131",
"# c #BD8A5A",
"$ c #848600",
/* pixels */
"                              ..........................  XX    ",
"                              ..........................        ",
"                              ..........................Xo o    ",
"                              ..........................o o     ",
"X o        OOOOOOOO    ooo    ++++++++++++++++++++++++++....   X",
"X  o       OOOOOOOO    ooo    ++++++++++++++++++++++++++....   X",
"  o        OOOOOOOO    ooo    ++++++++++++++++++++++++++.... +  ",
"  Xo       OOOOOOOO    ooo    ++++++++++++++++++++++++++.... +  ",
"X X        OOOOOOOO           .......................... o   + X",
"X Xo       OOOOOOOO           ..........................o o  + X",
"  X        OOOOOOOO           .......................... o   +  ",
"  Xo o o               +++OOOOOOOO+++++++@@@@@@@@     o o o     ",
"X o o o                +++OOOOOOOO+++++++@@@@@@@@    o o o     X",
"X  o o o               +++OOOOOOOO+++++++@@@@@@@@     o o o    X",
"  o o o                +++OOOOOOOO+++++++@@@@@@@@    o o o o    ",
"   o oXX   oooo    ++++   ########    +++OOOO    ####   X o     ",
"           oooo    ++++   ########    +++OOOO    ####           ",
"           oooo    ++++   ########    +++OOOO    ####           ",
"  o o oX   oooo    ++++   ########    +++OOOO    ####   XXo o   ",
"   o o o   oooo    ++++   OOOOOOOO    +++OOOO@@@@OOOO    o o o  ",
"X o o o    oooo    ++++   OOOOOOOO    +++OOOO@@@@OOOO   o o o  X",
"X  o o o   oooo    ++++   OOOOOOOO    +++OOOO@@@@OOOO    o o o X",
"  X o o    oooo    ++++   OOOOOOOO    +++OOOO@@@@OOOO   o o oX  ",
"  Xo o o   oooo    ###################@@@@@@@        o o o o X  ",
"X X o o    oooo    ###################@@@@@@@         o o o oX X",
"X Xo o o   oooo    ###################@@@@@@@        o o o o X X",
"  X o o    oooo    ####OOO        OOOO###@@@@     o o o o o oX  ",
"   o o o   oooo    ####OOO        OOOO###@@@@    o o o o o o o  ",
"X o o o    oooo    ####OOO        OOOO###@@@@     o o o o o o  X",
"X  o       oooo    ####OOO        OOOO###@@@@    o           o X",
"           oooo    ####OOO        OOOO###@@@@                   ",
"       +   oooo    ####OOO        OOOO###@@@@           ++      ",
"    XX     oooo    ####OOO        OOOO###@@@@           XX  XX  ",
"           oooo    ####OOO        OOOO###@@@@                   ",
"      ++   oooo    ######################    oooo    OOO     o  ",
"           oooo    ######################    oooo    OOO    o   ",
"X o        oooo    ######################    oooo    OOO        ",
"X  o o o   oooo    ######################    oooo    OOO    o   ",
"  o o o        oooo                      oooooooo    OOO       +",
"  Xo o o       oooo                      oooooooo    OOO    o  +",
"X X o o        oooo                      oooooooo    OOO       +",
"X Xo o o       ooooooooooo++++++++oooo                  o o o  +",
"  X o o        ooooooooooo++++++++oooo                   o o   +",
"  Xo o o       ooooooooooo++++++++oooo                  o o o   ",
"X o o o        ooooooooooo++++++++oooo                   o o    ",
"X  o       oooo           $$$$$$$$    ooo         o o o o o o   ",
"  o        oooo           $$$$$$$$    ooo          o o o o o o  ",
"   o       oooo           $$$$$$$$    ooo         o o XXXXX o   ",
"           oooo           $$$$$$$$    ooo                       ",
"    @@@@@@@    ooooooooooooooooooooooo       @@@@               ",
"    @@@@@@@    ooooooooooooooooooooooo       @@@@       XXXX o o",
"    @@@@@@@    ooooooooooooooooooooooo       @@@@       o o o o ",
"    @@@@@@@    ooooooooooooooooooooooo       @@@@        o o o o",
"    @@@@@@@@@@@                          @@@@@@@@@@@@@@@    o o ",
"    @@@@@@@@@@@                          @@@@@@@@@@@@@@@     o o",
"    @@@@@@@@@@@                          @@@@@@@@@@@@@@@    o oX",
"                                                             o X",
"                                                            o oX",
"                                                             o X",
"                                                            o oX",
"X o o o o o          o                        o      o o o o o o",
"X  o                  o                        o      o o o o o ",
"                     o                               o o o o o o",
"       ++++         o o                             o oXXXXXo o "
};
