/* XPM */
static char *result[] = {
/* columns rows colors chars-per-pixel */
"64 64 8 1 ",
"  c black",
". c #736D6B",
"X c white",
"o c #C6C7C6",
"O c #9C6131",
"+ c #BD8A5A",
"@ c #FFBE8C",
"# c #848600",
/* pixels */
"    ..  ..  ..                                    ..  ..  ..    ",
"                                                                ",
"      XXXXX                                      o o.....o o    ",
"                                                o o o o o o     ",
". o             OOOOOOOO++++++++++++++++OOOOOOOO     o o o     .",
".  o o o o o    OOOOOOOO++++++++++++++++OOOOOOOO    o o o o    .",
"  o o o o o     OOOOOOOO++++++++++++++++OOOOOOOO     o o o   X  ",
"  .o o o o o    OOOOOOOO++++++++++++++++OOOOOOOO    o o o o  X  ",
". . o o     OOOOOOOO++++++++OOOOOOOO++++++++OOOOOOOO     o   X .",
". .o o o    OOOOOOOO++++++++OOOOOOOO++++++++OOOOOOOO    o o  X .",
"  . o o     OOOOOOOO++++++++OOOOOOOO++++++++OOOOOOOO     o   X  ",
"  .o o o    OOOOOOOO++++++++OOOOOOOO++++++++OOOOOOOO    o o     ",
". o o o     OOOOOOOO        @@@@@@@@        OOOOOOOO     o     .",
".  o o o    OOOOOOOO        @@@@@@@@        OOOOOOOO    o o    .",
"  o o o     OOOOOOOO        @@@@@@@@        OOOOOOOO     o o    ",
"   o o..    OOOOOOOO        @@@@@@@@        OOOOOOOO    . o     ",
"            OOOO++++XXXXXXXX@@@@@@@@XXXXXXXX++++OOOO            ",
"            OOOO++++XXXXXXXX@@@@@@@@XXXXXXXX++++OOOO            ",
"  o o o.    OOOO++++XXXXXXXX@@@@@@@@XXXXXXXX++++OOOO    ..o o   ",
"   o o o    OOOO++++XXXXXXXX@@@@@@@@XXXXXXXX++++OOOO     o o o  ",
". o     ++++    @@@@XXXX    ++++++++    XXXX@@@@    ++++    o  .",
".  o    ++++    @@@@XXXX    ++++++++    XXXX@@@@    ++++     o .",
"  .     ++++    @@@@XXXX    ++++++++    XXXX@@@@    ++++    o.  ",
"  .o    ++++    @@@@XXXX    ++++++++    XXXX@@@@    ++++     .  ",
". .     @@@@OOOO@@@@XXXX    @@@@@@@@    XXXX@@@@OOOO@@@@    o. .",
". .o    @@@@OOOO@@@@XXXX    @@@@@@@@    XXXX@@@@OOOO@@@@     . .",
"  .     @@@@OOOO@@@@XXXX    @@@@@@@@    XXXX@@@@OOOO@@@@    o.  ",
"   o    @@@@OOOO@@@@XXXX    @@@@@@@@    XXXX@@@@OOOO@@@@     o  ",
". o o o         OOOOOOOO++++++++++++++++OOOOOOOO        o o o  .",
".  o            OOOOOOOO++++++++++++++++OOOOOOOO             o .",
"                OOOOOOOO++++++++++++++++OOOOOOOO                ",
"       X        OOOOOOOO++++++++++++++++OOOOOOOO        XX      ",
"        oooo    OOOO++++@@@@        @@@@++++OOOO    oooo    ..  ",
"        oooo    OOOO++++@@@@        @@@@++++OOOO    oooo        ",
"        oooo    OOOO++++@@@@        @@@@++++OOOO    oooo     o  ",
"        oooo    OOOO++++@@@@        @@@@++++OOOO    oooo    o   ",
"    oooooooo        ++++++++++++++++++++++++        oooooooo    ",
"    oooooooo        ++++++++++++++++++++++++        oooooooo    ",
"    oooooooo        ++++++++++++++++++++++++        oooooooo    ",
"    oooooooo        ++++++++++++++++++++++++        oooooooo    ",
"                oooo                        oooo                ",
"                oooo                        oooo                ",
"                oooo                        oooo                ",
"                oooo                        oooo                ",
"    @@@@++++    oooooooo####XXXXXXXX####oooooooo    ++++@@@@    ",
"    @@@@++++    oooooooo####XXXXXXXX####oooooooo    ++++@@@@    ",
"    @@@@++++    oooooooo####XXXXXXXX####oooooooo    ++++@@@@    ",
"    @@@@++++    oooooooo####XXXXXXXX####oooooooo    ++++@@@@    ",
"    @@@@@@@@                ########                @@@@@@@@    ",
"    @@@@@@@@                ########                @@@@@@@@    ",
"    @@@@@@@@                ########                @@@@@@@@    ",
"    @@@@@@@@                ########                @@@@@@@@    ",
". o                     oooooooooooooooo                     o o",
".  o                    oooooooooooooooo                    o o ",
"  .                     oooooooooooooooo                     o o",
"  .o                    oooooooooooooooo                    o o.",
". . o o     OOOOOOOOOOOO                OOOOOOOOOOOO     o o o .",
". .o o o    OOOOOOOOOOOO                OOOOOOOOOOOO    o o o o.",
"  . o o     OOOOOOOOOOOO                OOOOOOOOOOOO     o o o .",
"   o o o    OOOOOOOOOOOO                OOOOOOOOOOOO    o o o o.",
". o o o o o                                          o o o o o o",
".  o                                                  o o o o o ",
"                                                     o o o o o o",
"       XXXXX                                        o o.....o o "
};
