/* XPM */
static char *result[] = {
/* columns rows colors chars-per-pixel */
"64 64 7 1 ",
"  c black",
". c #736D6B",
"X c #01C700",
"o c white",
"O c #C6C7C6",
"+ c #008600",
"@ c #FF9200",
/* pixels */
"    ..  ..  ..      ..  ..  ..XXXX..  ..  ..      ..  ..  ..    ",
"                              XXXX                              ",
"      ooooo        O O.....O OXXXX O ..... O O   O O.....O O    ",
"                  O O O O O O XXXXO O O O O O   O O O O O O     ",
". O           O    O O O OXXXXooooXXXX O O O O   O O O O O     .",
".  O O O O O O O  O O O O XXXXooooXXXXO O O O   O O O O O O    .",
"  O O O O O O O   .O O O OXXXXooooXXXX O O O O  .O O O O O   o  ",
"  .O O O O O O .  . O O O XXXXooooXXXXO O O O.  . O O O O O  o  ",
". . O O O O O O.  .O O O OXXXXooooXXXX O O O .  .O O O O O   o .",
". .O O O O O O .  . O O O XXXXooooXXXXO O O O.  . O O O O O  o .",
"  . O O O O O O.  .O O O OXXXXooooXXXX O O O .  .O O O O O   o  ",
"  .O O O O O O .  O O O O XXXXooooXXXXO O O O.  O O O O O O     ",
". O O O O O O O    O O O OXXXXooooXXXX O O O O   O O O O O     .",
".  O O O O O O O  O O O O XXXXooooXXXXO O O O   O O O O O O    .",
"  O O O O O O O    O O O OXXXXooooXXXX O O O O   O O O O O O    ",
"   O O.....O O O  O O ....XXXXooooXXXX....O O   O O ..... O     ",
"                          XXXXooooXXXX                          ",
"                          XXXXooooXXXX                          ",
"  O O O.....O O      O ...XXXXooooXXXXooo       O O O.....O O   ",
"   O O O O O O O    O O O XXXXooooXXXX           O O O O O O O  ",
". O O O O O O O      O O OXXXXooooXXXX      O   O O O O O O O  .",
".  O O O O O O O      O O XXXXooooXXXX O O O O   O O O O O O O .",
"  . O O O O O O.     O O OXXXXooooXXXXO O O O   . O O O O O O.  ",
"  .O O O O O O .  o   O O XXXXooooXXXX O O O .  .O O O O O O .  ",
". . O O O O O O.  o  O O OXXXXooooXXXXO O O O.  . O O O O O O. .",
". .O O O O O O .  o   O O XXXXooooXXXX O O O .  .O O O O O O . .",
"  . O O O O O O.  o  O O OXXXXooooXXXXO O O O.  . O O O O O O.  ",
"   O O O O O O O  o   O O XXXXooooXXXX O O O .   O O O O O O O  ",
". O O O O O O O      O O OXXXXooooXXXXO O O O   O O O O O O O  .",
".  O           O      O O XXXXooooXXXX O O O O   O           O .",
"                     O O OXXXXooooXXXXO O O O                   ",
"       ooooo        O O...XXXXooooXXXX...O O O       ooooo      ",
"    ..  ..  ..      ..  ..XXXXooooXXXX  ..  ..      ..  ..  ..  ",
"                          XXXXooooXXXX                          ",
"      ooooo        O O....XXXXooooXXXXooooo        O O.....O O  ",
"                  O O O O XXXXooooXXXX            O O O O O O   ",
". O           O    O O O O++++oooo++++        O    O O O O O    ",
".  O O O O O O O  O O O O ++++oooo++++ O O O O O  O O O O O O   ",
"  O O O O O O O   .O O O O++++oooo++++O O O O O   .O O O O O   o",
"  .O O O O O O .  . O O O ++++oooo++++ O O O O .  . O O O O O  o",
". . O O O O O O.  .O O O O            O O O O O.  .O O O O O   o",
". .O O O O O O .  . O O O              O O O O .  . O O O O O  o",
"  . O O O O O O.  .O O O O            O O O O O.  .O O O O O   o",
"  .O O O O O O .  O O O O              O O O O .  O O O O O O   ",
". O O O O O O O    O O O O O  @@@@O O O O O O O    O O O O O    ",
".  O O O O O O O  O O O O O O @@@@ O O O O O O O  O O O O O O   ",
"  O O O O O O O    O O O O O O@@@@O O O O O O O    O O O O O O  ",
"   O O.....O O O  O O ..... O @@@@ O O.....O O O  O O ..... O   ",
"                              OOOO                              ",
"                              OOOO                              ",
"  O O O.....O O      O ...    OOOO    O.....O O      O ..... O O",
"   O O O O O O O    O O O     OOOO     O O O O O    O O O O O O ",
". O O O O O O O      O O O    OOOO    O O O O O      O O O O O O",
".  O O O O O O O      O O     OOOO     O O O O O      O O O O O ",
"  . O O O O O O.     O O O    OOOO    O O O O O.     O O O O O O",
"  .O O O O O O .  o   O O     OOOO     O O O O .  o   O O O O O.",
". . O O O O O O.  o  O O O            O O O O O.  o  O O O O O .",
". .O O O O O O .  o   O O              O O O O .  o   O O O O O.",
"  . O O O O O O.  o  O O O            O O O O O.  o  O O O O O .",
"   O O O O O O O  o   O O              O O O O O  o   O O O O O.",
". O O O O O O O      O O O O O    O O O O O O O      O O O O O O",
".  O           O      O O O O OOOO O           O      O O O O O ",
"                     O O O O OOOOO                   O O O O O O",
"       ooooo        O O.....O OOOO     ooooo        O O.....O O "
};
