/* XPM */
static char *result[] = {
/* columns rows colors chars-per-pixel */
"64 64 4 1 ",
"  c black",
". c #736D6B",
"X c #C6C7C6",
"o c white",
/* pixels */
"                                 .XXXXXXXXXXX..                 ",
"       ..  ..  .                  XXXXXXXXXXX..     X ..... X X ",
"   XXXXXXXXXXXXXXXXXXXXXXXXXX     XXXXXXXXXXXX.    X X X X X X  ",
"  X XXXXXXXXXXXXXXXXXXXXXXXX X   .XXXXXXXXXXXX..    X X X X X X ",
"  XX XXXXXXXXXXXXXXXXXXXXXX XX   .XXXXXXXXXXXX..     X X X X X  ",
"  XXX XXXXXXXXXXXXXXXXXXXX XXX    XXXXXXXXXXXX.     X X X X X X ",
"  XXXX XXXXXXXXXXXXXXXXXX XXXX    XXXXXXXXXX ..  o   X X X X X. ",
"  XXXXX XXXXXXXXXXXXXXXX XXXXX.    .......  XX.. o  X X X X X . ",
"  XXXXXX XXXXXXXXXXXXXX XXXXXX.    .......  XX.. o   X X X X X. ",
"  XXXXXXX XXXXXXXXXXXX XXXXXXX    XXXXXXXXXX ..  o  X X X X X . ",
"  XXXXXXXX XXXXXXXXXX XXXXXXXX    XXXXXXXXXXXX.  o   X X X X X. ",
"  XXXXXXXXX XXXXXXXX XXXXXXXXX.  .XXXXXXXXXXXX..    X X X X X X ",
"  XXXXXXXXXX XXXXXX XXXXXXXXXX.  .XXXXXXXXXXXX..     X X X X X  ",
"  XXXXXXXXXXX .... XXXXXXXXXXX    XXXXXXXXXXXX.     X X X X X X ",
"  XXXXXXXXXXX. .. .XXXXXXXXXXX    XXXXXXXXXXX..    X X.....X X  ",
"  XXXXXXXXXXX..  ..XXXXXXXXXXX.  .XXXXXXXXXXX..                 ",
" .XXXXXXXXXXX..  ..XXXXXXXXXXX.  .XXXXXXXXXXX..                 ",
"  XXXXXXXXXXX..  ..XXXXXXXXXXX    XXXXXXXXXXX..     X ..... X X ",
"  XXXXXXXXXXXX.  .XXXXXXXXXXXX    XXXXXXXXXXXX.    X X X X X X  ",
" .XXXXXXXXXXXX....XXXXXXXXXXXX.  .XXXXXXXXXXXX..    X X X X X X ",
" .XXXXXXXXXXXX....XXXXXXXXXXXX.  .XXXXXXXXXXXX..     X X X X X  ",
"  XXXXXXXXXXXX.  .XXXXXXXXXXXX    XXXXXXXXXXXX.     X X X X X X ",
"  XXXXXXXXXX ..  .. XXXXXXXXXX    XXXXXXXXXX ..  o   X X X X X. ",
"   .......  XX....XX  .......      .......  XX.. o  X X X X X . ",
"   .......  XX....XX  .......      .......  XX.. o   X X X X X. ",
"  XXXXXXXXXX ..  .. XXXXXXXXXX    XXXXXXXXXX ..  o  X X X X X . ",
"  XXXXXXXXXXXX.  .XXXXXXXXXXXX    XXXXXXXXXXXX.  o   X X X X X. ",
" .XXXXXXXXXXXX....XXXXXXXXXXXX.  .XXXXXXXXXXXX..    X X X X X X ",
" .XXXXXXXXXXXX....XXXXXXXXXXXX.  .XXXXXXXXXXXX..     X X X X X  ",
"  XXXXXXXXXXXX.  .XXXXXXXXXXXX    XXXXXXXXXXXX.     X X X X X X ",
"  XXXXXXXXXXX..  ..XXXXXXXXXXX    XXXXXXXXXXX..    X X.....X X  ",
" .XXXXXXXXXXX..  ..XXXXXXXXXXX.  .XXXXXXXXXXX..                 ",
" .XXXXXXXXXXX..  ..XXXXXXXXXXX.  .XXXXXXXXXXX..                 ",
"  XXXXXXXXXXX..  ..XXXXXXXXXXX    XXXXXXXXXXX..     X ..... X X ",
"  XXXXXXXXXXXX.  .XXXXXXXXXXXX    XXXXXXXXXXXX.    X X X X X X  ",
" .XXXXXXXXXXXX....XXXXXXXXXXXX.  .XXXXXXXXXXXX..    X X X X X X ",
" .XXXXXXXXXXXX....XXXXXXXXXXXX.  .XXXXXXXXXXXX..     X X X X X  ",
"  XXXXXXXXXXXX.  .XXXXXXXXXXXX    XXXXXXXXXXXX.     X X X X X X ",
"  XXXXXXXXXX ..  .. XXXXXXXXXX    XXXXXXXXXX ..  o   X X X X X. ",
"   .......  XX....XX  .......      .......  XX.. o  X X X X X . ",
"   .......  XX....XX  .......      .......  XX.. o   X X X X X. ",
"  XXXXXXXXXX ..  .. XXXXXXXXXX    XXXXXXXXXX ..  o  X X X X X . ",
"  XXXXXXXXXXXX.  .XXXXXXXXXXXX    XXXXXXXXXXXX.  o   X X X X X. ",
" .XXXXXXXXXXXX....XXXXXXXXXXXX.  .XXXXXXXXXXXX..    X X X X X X ",
" .XXXXXXXXXXXX....XXXXXXXXXXXX.  .XXXXXXXXXXXX..     X X X X X  ",
"  XXXXXXXXXXXX.  .XXXXXXXXXXXX    XXXXXXXXXXXX.     X X X X X X ",
"  XXXXXXXXXXX..  ..XXXXXXXXXXX    XXXXXXXXXXX..    X X.....X X  ",
" .XXXXXXXXXXX..  ..XXXXXXXXXXX.  .XXXXXXXXXXX..                 ",
" .XXXXXXXXXXX..  ..XXXXXXXXXXX   .XXXXXXXXXXX..                 ",
"  XXXXXXXXXXX. .. .XXXXXXXXXXX    XXXXXXXXXXX..     X ..... X X ",
"  XXXXXXXXXXX .... XXXXXXXXXXX    XXXXXXXXXXXX.    X X X X X X  ",
" .XXXXXXXXXX XXXXXX XXXXXXXXXX   .XXXXXXXXXXXX..    X X X X X X ",
" .XXXXXXXXX XXXXXXXX XXXXXXXXX   .XXXXXXXXXXXX..     X X X X X  ",
"  XXXXXXXX XXXXXXXXXX XXXXXXXX    XXXXXXXXXXXX.     X X X X X X ",
"  XXXXXXX XXXXXXXXXXXX XXXXXXX    XXXXXXXXXX ..  o   X X X X X. ",
" .XXXXXX XXXXXXXXXXXXXX XXXXXX     .......  XX.. o  X X X X X . ",
" .XXXXX XXXXXXXXXXXXXXXX XXXXX     .......  XX.. o   X X X X X. ",
"  XXXX XXXXXXXXXXXXXXXXXX XXXX    XXXXXXXXXX ..  o  X X X X X . ",
"  XXX XXXXXXXXXXXXXXXXXXXX XXX    XXXXXXXXXXXX.  o   X X X X X. ",
"  XX XXXXXXXXXXXXXXXXXXXXXX XX   .XXXXXXXXXXXX..    X X X X X X ",
"  X XXXXXXXXXXXXXXXXXXXXXXXX X   .XXXXXXXXXXXX..     X X X X X  ",
"   XXXXXXXXXXXXXXXXXXXXXXXXXX     XXXXXXXXXXXX.     X X X X X X ",
"                .  ..  ..         XXXXXXXXXXX..    X X.....X X  ",
"                                 .XXXXXXXXXXX..                 "
};
