/* XPM */
static char *result[] = {
/* columns rows colors chars-per-pixel */
"64 64 4 1 ",
"  c black",
". c #736D6B",
"X c #C6C7C6",
"o c white",
/* pixels */
"                 ..XXXXXXXXXXX.                                 ",
"  X X.....X X    ..XXXXXXXXXXX         ..  ..  .                ",
" X X X X X X     .XXXXXXXXXXXX     XXXXXXXXXXXXXXXXXXXXXXXXXX   ",
"  X X X X X     ..XXXXXXXXXXXX.   X XXXXXXXXXXXXXXXXXXXXXXXX X  ",
" X X X X X X    ..XXXXXXXXXXXX.   XX XXXXXXXXXXXXXXXXXXXXXX XX  ",
" .X X X X X   o  .XXXXXXXXXXXX    XXX XXXXXXXXXXXXXXXXXXXX XXX  ",
" . X X X X X  o  .. XXXXXXXXXX    XXXX XXXXXXXXXXXXXXXXXX XXXX  ",
" .X X X X X   o ..XX  .......     XXXXX XXXXXXXXXXXXXXXX XXXXX. ",
" . X X X X X  o ..XX  .......     XXXXXX XXXXXXXXXXXXXX XXXXXX. ",
" .X X X X X   o  .. XXXXXXXXXX    XXXXXXX XXXXXXXXXXXX XXXXXXX  ",
" X X X X X X     .XXXXXXXXXXXX    XXXXXXXX XXXXXXXXXX XXXXXXXX  ",
"  X X X X X     ..XXXXXXXXXXXX.   XXXXXXXXX XXXXXXXX XXXXXXXXX. ",
" X X X X X X    ..XXXXXXXXXXXX.   XXXXXXXXXX XXXXXX XXXXXXXXXX. ",
"  X X X X X X    .XXXXXXXXXXXX    XXXXXXXXXXX .... XXXXXXXXXXX  ",
" X X ..... X     ..XXXXXXXXXXX    XXXXXXXXXXX. .. .XXXXXXXXXXX  ",
"                 ..XXXXXXXXXXX.   XXXXXXXXXXX..  ..XXXXXXXXXXX. ",
"                 ..XXXXXXXXXXX.  .XXXXXXXXXXX..  ..XXXXXXXXXXX. ",
"  X X.....X X    ..XXXXXXXXXXX    XXXXXXXXXXX..  ..XXXXXXXXXXX  ",
" X X X X X X     .XXXXXXXXXXXX    XXXXXXXXXXXX.  .XXXXXXXXXXXX  ",
"  X X X X X     ..XXXXXXXXXXXX.  .XXXXXXXXXXXX....XXXXXXXXXXXX. ",
" X X X X X X    ..XXXXXXXXXXXX.  .XXXXXXXXXXXX....XXXXXXXXXXXX. ",
" .X X X X X   o  .XXXXXXXXXXXX    XXXXXXXXXXXX.  .XXXXXXXXXXXX  ",
" . X X X X X  o  .. XXXXXXXXXX    XXXXXXXXXX ..  .. XXXXXXXXXX  ",
" .X X X X X   o ..XX  .......      .......  XX....XX  .......   ",
" . X X X X X  o ..XX  .......      .......  XX....XX  .......   ",
" .X X X X X   o  .. XXXXXXXXXX    XXXXXXXXXX ..  .. XXXXXXXXXX  ",
" X X X X X X     .XXXXXXXXXXXX    XXXXXXXXXXXX.  .XXXXXXXXXXXX  ",
"  X X X X X     ..XXXXXXXXXXXX.  .XXXXXXXXXXXX....XXXXXXXXXXXX. ",
" X X X X X X    ..XXXXXXXXXXXX.  .XXXXXXXXXXXX....XXXXXXXXXXXX. ",
"  X X X X X X    .XXXXXXXXXXXX    XXXXXXXXXXXX.  .XXXXXXXXXXXX  ",
" X X ..... X     ..XXXXXXXXXXX    XXXXXXXXXXX..  ..XXXXXXXXXXX  ",
"                 ..XXXXXXXXXXX.  .XXXXXXXXXXX..  ..XXXXXXXXXXX. ",
"                 ..XXXXXXXXXXX.  .XXXXXXXXXXX..  ..XXXXXXXXXXX. ",
"  X X.....X X    ..XXXXXXXXXXX    XXXXXXXXXXX..  ..XXXXXXXXXXX  ",
" X X X X X X     .XXXXXXXXXXXX    XXXXXXXXXXXX.  .XXXXXXXXXXXX  ",
"  X X X X X     ..XXXXXXXXXXXX.  .XXXXXXXXXXXX....XXXXXXXXXXXX. ",
" X X X X X X    ..XXXXXXXXXXXX.  .XXXXXXXXXXXX....XXXXXXXXXXXX. ",
" .X X X X X   o  .XXXXXXXXXXXX    XXXXXXXXXXXX.  .XXXXXXXXXXXX  ",
" . X X X X X  o  .. XXXXXXXXXX    XXXXXXXXXX ..  .. XXXXXXXXXX  ",
" .X X X X X   o ..XX  .......      .......  XX....XX  .......   ",
" . X X X X X  o ..XX  .......      .......  XX....XX  .......   ",
" .X X X X X   o  .. XXXXXXXXXX    XXXXXXXXXX ..  .. XXXXXXXXXX  ",
" X X X X X X     .XXXXXXXXXXXX    XXXXXXXXXXXX.  .XXXXXXXXXXXX  ",
"  X X X X X     ..XXXXXXXXXXXX.  .XXXXXXXXXXXX....XXXXXXXXXXXX. ",
" X X X X X X    ..XXXXXXXXXXXX.  .XXXXXXXXXXXX....XXXXXXXXXXXX. ",
"  X X X X X X    .XXXXXXXXXXXX    XXXXXXXXXXXX.  .XXXXXXXXXXXX  ",
" X X ..... X     ..XXXXXXXXXXX    XXXXXXXXXXX..  ..XXXXXXXXXXX  ",
"                 ..XXXXXXXXXXX.  .XXXXXXXXXXX..  ..XXXXXXXXXXX. ",
"                 ..XXXXXXXXXXX.  .XXXXXXXXXXX..  ..XXXXXXXXXXX  ",
"  X X.....X X    ..XXXXXXXXXXX    XXXXXXXXXXX. .. .XXXXXXXXXXX  ",
" X X X X X X     .XXXXXXXXXXXX    XXXXXXXXXXX .... XXXXXXXXXXX  ",
"  X X X X X     ..XXXXXXXXXXXX.  .XXXXXXXXXX XXXXXX XXXXXXXXXX  ",
" X X X X X X    ..XXXXXXXXXXXX.  .XXXXXXXXX XXXXXXXX XXXXXXXXX  ",
" .X X X X X   o  .XXXXXXXXXXXX    XXXXXXXX XXXXXXXXXX XXXXXXXX  ",
" . X X X X X  o  .. XXXXXXXXXX    XXXXXXX XXXXXXXXXXXX XXXXXXX  ",
" .X X X X X   o ..XX  .......    .XXXXXX XXXXXXXXXXXXXX XXXXXX  ",
" . X X X X X  o ..XX  .......    .XXXXX XXXXXXXXXXXXXXXX XXXXX  ",
" .X X X X X   o  .. XXXXXXXXXX    XXXX XXXXXXXXXXXXXXXXXX XXXX  ",
" X X X X X X     .XXXXXXXXXXXX    XXX XXXXXXXXXXXXXXXXXXXX XXX  ",
"  X X X X X     ..XXXXXXXXXXXX.   XX XXXXXXXXXXXXXXXXXXXXXX XX  ",
" X X X X X X    ..XXXXXXXXXXXX.   X XXXXXXXXXXXXXXXXXXXXXXXX X  ",
"  X X X X X X    .XXXXXXXXXXXX     XXXXXXXXXXXXXXXXXXXXXXXXXX   ",
" X X ..... X     ..XXXXXXXXXXX                  .  ..  ..       ",
"                 ..XXXXXXXXXXX.                                 "
};
