/* XPM */
static char *result[] = {
/* columns rows colors chars-per-pixel */
"64 64 4 1 ",
"  c black",
". c #C6C7C6",
"X c #736D6B",
"o c white",
/* pixels */
"                                                                ",
" . . .XXXXX. .   . . .XXXXX. .   . . .XXXXX. .   . . .XXXXX. .  ",
"  . . . . . . .   . . . . . . .   . . . . . . .   . . . . . . . ",
" . . . . . . .   . . . . . . .   . . . . . . .   . . . . . . .  ",
"  . . . . . . .   . . . . . . .   . . . . . . .   . . . . . . . ",
" X . . . . . .X  X . . . . . .X  X . . . . . .X  X . . . . . .X ",
" X. . . . . . X  X. . . . . . X  X. . . . . . X  X. . . . . . X ",
" X . . . . . .X  X . . . . . .X  X . . . . . .X  X . . . . . .X ",
" X. . . . . . X  X. . . . . . X  X. . . . . . X  X. . . . . . X ",
" X . . . . . .X  X . . . . . .X  X . . . . . .X  X . . . . . .X ",
"  . . . . . . .   . . . . . . .   . . . . . . .   . . . . . . . ",
" . . . . . . .   . . . . . . .   . . . . . . .   . . . . . . .  ",
"  .           .   .           .   .           .   .           . ",
"                                                                ",
"      ooooo           ooooo           ooooo           ooooo     ",
"                                                                ",
"   XX  XX  XX      XX  XX  XX      XX  XX  XX      XX  XX  XX   ",
"XXXXXXXXXXXXXXXXXXXXXXXXXXXXXXXXXXXXXXXXXXXXXXXXXXXXXXXXXXXXXXXX",
"XX....X..X....XXXX....X..X....XXXX....X..X....XXXX....X..X....XX",
"...... .. ............ .. ............ .. ............ .. ......",
".......  ..............  ..............  ..............  .......",
".......  ..............  ..............  ..............  .......",
".......XX..............XX..............XX..............XX.......",
".......XX..............XX..............XX..............XX.......",
".......XX..............XX..............XX..............XX.......",
".......XX..............XX..............XX..............XX.......",
".......XX..............XX..............XX..............XX.......",
".......XX..............XX..............XX..............XX.......",
".......XX..............XX..............XX..............XX.......",
".......  ..............  ..............  ..............  .......",
"X  XX      XX  XX  XX      XX  XX  XX      XX  XX  XX      XX  X",
"                                                                ",
"                                                                ",
"       XX  XX  XX  XX      XX  XX  XX      XX  X                ",
"   ....................  ..............  ....................   ",
"  . ...................XX..............XX................... .  ",
"  .. ..................XX..............XX.................. ..  ",
"  ... .................XX..............XX................. ...  ",
"  .... ................XX..............XX................ ....  ",
"  ..... ...............XX..............XX............... .....X ",
"  ...... ..............XX..............XX.............. ......X ",
"  ....... .............XX..............XX............. .......  ",
"  ........ ............  ..............  ............ ........  ",
"  ......... ...........  ..............  ........... .........X ",
"  .......... ......... .. ............ .. ......... ..........X ",
"  ........... XXXX....X..X....XXXX....X..X....XXXX ...........  ",
"  ...........X XXXXXXXXXXXXXXXXXXXXXXXXXXXXXXXXXX X...........  ",
"  ...........XX    XX  XX  XX      XX  XX  XX    XX...........X ",
" X...........XX    XX  XX  XX      XX  XX  XX    XX...........  ",
"  ...........X XXXXXXXXXXXXXXXXXXXXXXXXXXXXXXXXXX X...........  ",
"  ........... XXXX....X..X....XXXX....X..X....XXXX ...........  ",
" X.......... ......... .. ............ .. ......... ..........  ",
" X......... ...........  ..............  ........... .........  ",
"  ........ ............  ..............  ............ ........  ",
"  ....... .............XX..............XX............. .......  ",
" X...... ..............XX..............XX.............. ......  ",
" X..... ...............XX..............XX............... .....  ",
"  .... ................XX..............XX................ ....  ",
"  ... .................XX..............XX................. ...  ",
"  .. ..................XX..............XX.................. ..  ",
"  . ...................XX..............XX................... .  ",
"   ....................  ..............  ....................   ",
"                X  XX      XX  XX  XX      XX  XX  XX  XX       ",
"                                                                "
};
