/* XPM */
static char *result[] = {
/* columns rows colors chars-per-pixel */
"64 64 4 1 ",
"  c black",
". c #736D6B",
"X c #C6C7C6",
"o c white",
/* pixels */
"                                                                ",
"       ..  ..  ..  ..      ..  ..  ..      ..  .                ",
"   XXXXXXXXXXXXXXXXXXXX  XXXXXXXXXXXXXX  XXXXXXXXXXXXXXXXXXXX   ",
"  X XXXXXXXXXXXXXXXXXXX..XXXXXXXXXXXXXX..XXXXXXXXXXXXXXXXXXX X  ",
"  XX XXXXXXXXXXXXXXXXXX..XXXXXXXXXXXXXX..XXXXXXXXXXXXXXXXXX XX  ",
"  XXX XXXXXXXXXXXXXXXXX..XXXXXXXXXXXXXX..XXXXXXXXXXXXXXXXX XXX  ",
"  XXXX XXXXXXXXXXXXXXXX..XXXXXXXXXXXXXX..XXXXXXXXXXXXXXXX XXXX  ",
"  XXXXX XXXXXXXXXXXXXXX..XXXXXXXXXXXXXX..XXXXXXXXXXXXXXX XXXXX. ",
"  XXXXXX XXXXXXXXXXXXXX..XXXXXXXXXXXXXX..XXXXXXXXXXXXXX XXXXXX. ",
"  XXXXXXX XXXXXXXXXXXXX..XXXXXXXXXXXXXX..XXXXXXXXXXXXX XXXXXXX  ",
"  XXXXXXXX XXXXXXXXXXXX  XXXXXXXXXXXXXX  XXXXXXXXXXXX XXXXXXXX  ",
"  XXXXXXXXX XXXXXXXXXXX  XXXXXXXXXXXXXX  XXXXXXXXXXX XXXXXXXXX. ",
"  XXXXXXXXXX XXXXXXXXX XX XXXXXXXXXXXX XX XXXXXXXXX XXXXXXXXXX. ",
"  XXXXXXXXXXX ....XXXX.XX.XXXX....XXXX.XX.XXXX.... XXXXXXXXXXX  ",
"  XXXXXXXXXXX. .................................. .XXXXXXXXXXX  ",
"  XXXXXXXXXXX..    ..  ..  ..      ..  ..  ..    ..XXXXXXXXXXX. ",
" .XXXXXXXXXXX..    ..  ..  ..      ..  ..  ..    ..XXXXXXXXXXX  ",
"  XXXXXXXXXXX. .................................. .XXXXXXXXXXX  ",
"  XXXXXXXXXXX ....XXXX.XX.XXXX....XXXX.XX.XXXX.... XXXXXXXXXXX  ",
" .XXXXXXXXXX XXXXXXXXX XX XXXXXXXXXXXX XX XXXXXXXXX XXXXXXXXXX  ",
" .XXXXXXXXX XXXXXXXXXXX  XXXXXXXXXXXXXX  XXXXXXXXXXX XXXXXXXXX  ",
"  XXXXXXXX XXXXXXXXXXXX  XXXXXXXXXXXXXX  XXXXXXXXXXXX XXXXXXXX  ",
"  XXXXXXX XXXXXXXXXXXXX..XXXXXXXXXXXXXX..XXXXXXXXXXXXX XXXXXXX  ",
" .XXXXXX XXXXXXXXXXXXXX..XXXXXXXXXXXXXX..XXXXXXXXXXXXXX XXXXXX  ",
" .XXXXX XXXXXXXXXXXXXXX..XXXXXXXXXXXXXX..XXXXXXXXXXXXXXX XXXXX  ",
"  XXXX XXXXXXXXXXXXXXXX..XXXXXXXXXXXXXX..XXXXXXXXXXXXXXXX XXXX  ",
"  XXX XXXXXXXXXXXXXXXXX..XXXXXXXXXXXXXX..XXXXXXXXXXXXXXXXX XXX  ",
"  XX XXXXXXXXXXXXXXXXXX..XXXXXXXXXXXXXX..XXXXXXXXXXXXXXXXXX XX  ",
"  X XXXXXXXXXXXXXXXXXXX..XXXXXXXXXXXXXX..XXXXXXXXXXXXXXXXXXX X  ",
"   XXXXXXXXXXXXXXXXXXXX  XXXXXXXXXXXXXX  XXXXXXXXXXXXXXXXXXXX   ",
"                .  ..      ..  ..  ..      ..  ..  ..  ..       ",
"                                                                ",
"                                                                ",
".  ..      ..  ..  ..      ..  ..  ..      ..  ..  ..      ..  .",
"XXXXXXX  XXXXXXXXXXXXXX  XXXXXXXXXXXXXX  XXXXXXXXXXXXXX  XXXXXXX",
"XXXXXXX..XXXXXXXXXXXXXX..XXXXXXXXXXXXXX..XXXXXXXXXXXXXX..XXXXXXX",
"XXXXXXX..XXXXXXXXXXXXXX..XXXXXXXXXXXXXX..XXXXXXXXXXXXXX..XXXXXXX",
"XXXXXXX..XXXXXXXXXXXXXX..XXXXXXXXXXXXXX..XXXXXXXXXXXXXX..XXXXXXX",
"XXXXXXX..XXXXXXXXXXXXXX..XXXXXXXXXXXXXX..XXXXXXXXXXXXXX..XXXXXXX",
"XXXXXXX..XXXXXXXXXXXXXX..XXXXXXXXXXXXXX..XXXXXXXXXXXXXX..XXXXXXX",
"XXXXXXX..XXXXXXXXXXXXXX..XXXXXXXXXXXXXX..XXXXXXXXXXXXXX..XXXXXXX",
"XXXXXXX..XXXXXXXXXXXXXX..XXXXXXXXXXXXXX..XXXXXXXXXXXXXX..XXXXXXX",
"XXXXXXX  XXXXXXXXXXXXXX  XXXXXXXXXXXXXX  XXXXXXXXXXXXXX  XXXXXXX",
"XXXXXXX  XXXXXXXXXXXXXX  XXXXXXXXXXXXXX  XXXXXXXXXXXXXX  XXXXXXX",
"XXXXXX XX XXXXXXXXXXXX XX XXXXXXXXXXXX XX XXXXXXXXXXXX XX XXXXXX",
"..XXXX.XX.XXXX....XXXX.XX.XXXX....XXXX.XX.XXXX....XXXX.XX.XXXX..",
"................................................................",
"   ..  ..  ..      ..  ..  ..      ..  ..  ..      ..  ..  ..   ",
"                                                                ",
"     ooooo           ooooo           ooooo           ooooo      ",
"                                                                ",
" X           X   X           X   X           X   X           X  ",
"  X X X X X X X   X X X X X X X   X X X X X X X   X X X X X X X ",
" X X X X X X X   X X X X X X X   X X X X X X X   X X X X X X X  ",
" .X X X X X X .  .X X X X X X .  .X X X X X X .  .X X X X X X . ",
" . X X X X X X.  . X X X X X X.  . X X X X X X.  . X X X X X X. ",
" .X X X X X X .  .X X X X X X .  .X X X X X X .  .X X X X X X . ",
" . X X X X X X.  . X X X X X X.  . X X X X X X.  . X X X X X X. ",
" .X X X X X X .  .X X X X X X .  .X X X X X X .  .X X X X X X . ",
" X X X X X X X   X X X X X X X   X X X X X X X   X X X X X X X  ",
"  X X X X X X X   X X X X X X X   X X X X X X X   X X X X X X X ",
" X X X X X X X   X X X X X X X   X X X X X X X   X X X X X X X  ",
"  X X.....X X X   X X.....X X X   X X.....X X X   X X.....X X X ",
"                                                                "
};
